<?xml version="1.0" encoding="UTF-8" standalone="no"?>
<!-- Created with Inkscape (http://www.inkscape.org/) -->

<svg
   width="384"
   height="384"
   viewBox="0 0 101.6 101.6"
   version="1.1"
   id="svg1"
   xml:space="preserve"
   inkscape:version="1.3.2 (091e20ef0f, 2023-11-25, custom)"
   sodipodi:docname="p-logo.svg"
   xmlns:inkscape="http://www.inkscape.org/namespaces/inkscape"
   xmlns:sodipodi="http://sodipodi.sourceforge.net/DTD/sodipodi-0.dtd"
   xmlns="http://www.w3.org/2000/svg"
   xmlns:svg="http://www.w3.org/2000/svg"><sodipodi:namedview
     id="namedview1"
     pagecolor="#4d4d4d"
     bordercolor="#000000"
     borderopacity="0.25"
     inkscape:showpageshadow="2"
     inkscape:pageopacity="0.0"
     inkscape:pagecheckerboard="true"
     inkscape:deskcolor="#4d4d4d"
     inkscape:document-units="px"
     inkscape:zoom="1.6"
     inkscape:cx="115.9375"
     inkscape:cy="190.625"
     inkscape:window-width="1465"
     inkscape:window-height="991"
     inkscape:window-x="26"
     inkscape:window-y="23"
     inkscape:window-maximized="0"
     inkscape:current-layer="layer1"
     showguides="false"><sodipodi:guide
       position="3.2187312,82.559948"
       orientation="1,0"
       id="guide9"
       inkscape:locked="false" /><sodipodi:guide
       position="82.691529,3.2216375"
       orientation="0,-1"
       id="guide10"
       inkscape:locked="false" /></sodipodi:namedview><defs
     id="defs1"><inkscape:path-effect
       effect="fill_between_many"
       method="originald"
       linkedpaths="#path3,0,1|"
       id="path-effect4" /><inkscape:path-effect
       effect="fill_between_many"
       method="originald"
       linkedpaths="#path3,0,1|"
       id="path-effect5" /><filter
       inkscape:collect="always"
       style="color-interpolation-filters:sRGB"
       id="filter7"
       x="-0.18150192"
       y="-0.10806995"
       width="1.3630038"
       height="1.2161399"><feGaussianBlur
         inkscape:collect="always"
         stdDeviation="3.6687555"
         id="feGaussianBlur7" /></filter><filter
       inkscape:collect="always"
       style="color-interpolation-filters:sRGB"
       id="filter8"
       x="-0.047999999"
       y="-0.047999999"
       width="1.096"
       height="1.096"><feGaussianBlur
         inkscape:collect="always"
         stdDeviation="1.4552083"
         id="feGaussianBlur8" /></filter></defs><g
     inkscape:label="Layer 1"
     inkscape:groupmode="layer"
     id="layer1"><path
       id="path6"
       style="fill:#000000;stroke:none;stroke-width:15.2969;stroke-dasharray:none;stroke-opacity:1;filter:url(#filter8)"
       d="M 50.826458,16.536458 A 36.380207,36.380207 0 0 0 14.44625,52.916667 36.380207,36.380207 0 0 0 50.826458,89.296875 36.380207,36.380207 0 0 0 87.206666,52.916667 36.380207,36.380207 0 0 0 65.890138,19.811711 c 5.769464,7.969844 2.581508,29.239765 -17.716748,40.845568 -4.815125,1.832089 0.0181,0.09411 0.0801,0.428915 1.182749,6.374143 1.528354,9.433903 2.623613,18.662943 1.109349,6.847904 -9.138572,6.744055 -9.251632,0.621151 -0.454649,-13.530416 0.384063,-20.535235 -1.877405,-33.246549 -1.433058,1.99255 -9.442676,0.430942 -5.45083,-6.91379 4.644806,-7.688401 10.165125,-16.567452 20.731035,-21.718571 0.504919,-0.178225 4.758574,-1.894766 -0.110071,-0.242363 0.854921,-0.489451 1.676892,-0.849207 2.468583,-1.106392 A 36.380207,36.380207 0 0 0 50.82646,16.536458 Z m 8.354012,10.885124 c -4.426686,0.27356 -13.380567,9.167858 -14.794446,13.067419 -0.04221,0.116226 1.082023,3.615748 2.598291,14.789795 C 52.43269,51.712792 63.00671,39.721158 61.569472,29.519128 61.304712,27.945323 60.419949,27.344972 59.18047,27.421582 Z"
       transform="matrix(0.97594744,0,0,0.97594744,1.2225081,1.1322681)" /><path
       id="path3"
       style="fill:#ffffff;stroke-width:2.5"
       d="M 199.65271,46.763349 A 149.65805,149.65805 0 0 0 49.995054,196.421 149.65805,149.65805 0 0 0 199.65271,346.07866 149.65805,149.65805 0 0 0 349.31036,196.421 149.65805,149.65805 0 0 0 199.65271,46.763349 Z m 37.37453,9.189935 c 50.34523,-1.401578 56.38107,120.005226 -46.91122,180.201426 4.30598,23.33613 5.65808,35.13494 9.72815,69.4308 0.49888,3.07956 0.37338,5.77578 -0.20848,8.11565 0.0853,0.71902 0.13792,1.15328 0.22549,1.89117 4.56672,28.18991 -37.61962,27.76241 -38.08504,2.55701 -1.82878,-54.4248 1.39389,-83.26126 -7.14135,-133.36679 -2.95933,1.07242 -7.0934,0.99693 -10.96623,-0.33399 -10.71986,-0.88734 -23.62958,-10.33442 -12.05966,-31.62231 19.1207,-31.64988 41.84551,-68.201173 85.34088,-89.406145 2.07854,-0.733676 19.58903,-7.799947 -0.45311,-0.997703 7.43638,-4.257408 14.31948,-6.296181 20.53057,-6.469118 z m -5.87135,52.310296 c -16.69262,1.03157 -50.45682,34.56976 -55.78843,49.27464 -0.15917,0.43828 4.07851,13.63511 9.79621,55.77142 20.54532,-13.44708 60.4189,-58.66585 54.99921,-97.13676 -0.99838,-5.93467 -4.33303,-8.19819 -9.00699,-7.9093 z"
       transform="matrix(0.2372426,0,0,0.23724259,3.4345098,4.1109693)" /><path
       id="path7"
       style="color:#000000;opacity:0.75;mix-blend-mode:normal;fill:#000000;-inkscape-stroke:none;filter:url(#filter7)"
       d="m 59.695064,13.768671 c -2.376566,0.06617 -4.660868,0.820088 -6.851261,1.896525 -0.03584,0.01218 -0.04093,0.01273 -0.07803,0.02532 l 0.0036,0.0078 c -0.383315,0.190252 -0.788161,0.298632 -1.163753,0.513664 l 0.115238,0.253731 C 39.545312,22.558409 33.237343,32.833021 28.609623,40.493138 l -0.07855,0.130741 -0.07235,0.131258 c -1.488114,2.738034 -2.289178,5.770231 -1.72651,8.818067 0.562669,3.047835 2.597973,5.569993 4.70514,6.896736 0.840484,0.529198 1.686892,0.834327 2.535245,1.115178 1.030246,8.655176 0.635062,15.186809 1.013892,26.611295 2.4e-5,0.0013 -2.4e-5,0.0023 0,0.0036 0.06358,3.373204 1.802369,6.635153 4.142383,8.498189 2.340914,1.863752 5.042805,2.612217 7.730277,2.54093 2.687473,-0.07129 5.604175,-1.022068 7.8481,-3.40806 2.243926,-2.385993 3.207733,-6.139305 2.673739,-9.4356 C 56.548276,75.376969 56.016508,71.926319 55.294811,67.594825 67.154096,59.375723 73.287944,47.917739 74.714814,37.700009 75.503114,32.055044 75.00078,26.72269 72.740258,22.137651 70.492268,17.578031 65.49066,13.668221 59.787043,13.782089 l 0.01964,1.39268 c -0.0036,-0.0015 -0.0062,-0.0021 -0.0098,-0.0036 l -0.0098,-1.389062 c -0.0318,6.35e-4 -0.06014,-0.01433 -0.09198,-0.01344 z m 0.183968,6.613033 c 12.285848,-0.34203 13.719135,29.427655 -11.7321,43.979744 -4.815125,1.832089 0.0181,0.09412 0.0801,0.428915 1.182749,6.374143 1.528354,9.433903 2.623613,18.662943 1.109349,6.847904 -9.138572,6.744055 -9.251632,0.621151 -0.454649,-13.530416 0.384063,-20.535235 -1.877405,-33.246549 -1.433058,1.99255 -9.442676,0.430942 -5.45083,-6.91379 4.644806,-7.688401 10.165125,-16.567452 20.731035,-21.718571 0.504919,-0.178225 4.758574,-1.894766 -0.110071,-0.242363 1.806448,-1.034211 3.478494,-1.52947 4.987292,-1.57148 z m -0.72502,10.744047 c -4.426686,0.27356 -13.380567,9.167858 -14.794446,13.067419 -0.04221,0.116226 1.082023,3.615748 2.598291,14.789795 5.448375,-3.566004 16.022395,-15.557638 14.585157,-25.759668 -0.26476,-1.573805 -1.149523,-2.174156 -2.389002,-2.097546 z"
       transform="matrix(0.88510074,0,0,0.88510074,5.8382131,9.493278)" /><path
       id="path5"
       style="color:#000000;fill:#e6e6e6;stroke-width:0.975947;-inkscape-stroke:none"
       d="m 59.481753,10.954693 c -2.319403,0.06458 -4.548762,0.800363 -6.68647,1.850909 -0.03498,0.01188 -0.03994,0.01242 -0.07615,0.02471 l 0.0035,0.0076 c -0.374095,0.185676 -0.769204,0.29145 -1.135761,0.501309 l 0.112466,0.247628 c -11.882684,5.946166 -18.03893,15.973648 -22.555341,23.44952 l -0.07666,0.127596 -0.0706,0.1281 c -1.45232,2.672178 -2.234117,5.631443 -1.684982,8.605971 0.549135,2.974526 2.535485,5.43602 4.591969,6.730851 0.820267,0.516469 1.646318,0.81426 2.474266,1.088355 1.005465,8.446997 0.619787,14.821528 0.989505,25.971226 2.3e-5,0.0013 -2.3e-5,0.0022 0,0.0035 0.06205,3.29207 1.759017,6.47556 4.042748,8.293786 2.284609,1.818924 4.921513,2.549386 7.544344,2.479814 2.622832,-0.06958 5.46938,-0.997485 7.659333,-3.326087 2.189954,-2.328605 3.130579,-5.99164 2.609429,-9.20865 C 56.410658,71.081171 55.89168,67.713518 55.187342,63.486208 66.761381,55.464796 72.747694,44.282406 74.140245,34.310438 74.909584,28.80125 74.419332,23.597153 72.213182,19.122396 70.019262,14.672445 65.137955,10.856678 59.571525,10.967806 l 0.01916,1.359183 c -0.0035,-0.0014 -0.0061,-0.0021 -0.0096,-0.0035 l -0.0096,-1.355651 c -0.03104,6.2e-4 -0.05869,-0.01399 -0.08977,-0.01312 z m 0.179543,6.453973 c 11.990342,-0.333804 13.389154,28.719845 -11.449913,42.921919 -4.699308,1.788022 0.01767,0.09185 0.07817,0.418598 1.154301,6.220829 1.491594,9.206993 2.560509,18.214051 1.082665,6.683195 -8.918766,6.581844 -9.029108,0.606211 -0.443713,-13.204975 0.374827,-20.04131 -1.832247,-32.446884 -1.39859,1.944624 -9.215556,0.420576 -5.319724,-6.747496 4.533086,-7.503476 9.920628,-16.168962 20.2324,-21.196184 0.492774,-0.173939 4.644118,-1.849192 -0.10742,-0.236533 1.762998,-1.009336 3.394828,-1.492683 4.867335,-1.533682 z m -0.707581,10.485625 c -4.320213,0.26698 -13.05873,8.947348 -14.438602,12.753114 -0.0412,0.113431 1.055997,3.52878 2.535795,14.434063 5.317328,-3.480233 15.637016,-15.183438 14.234347,-25.140082 -0.258392,-1.535952 -1.121874,-2.121862 -2.33154,-2.047095 z" /><path
       d="m 59.661289,17.408428 c -1.472509,0.041 -3.104479,0.524651 -4.867479,1.533988 4.751547,-1.61266 0.600159,0.06277 0.107387,0.236711 -10.311781,5.027227 -15.699158,13.692691 -20.232248,21.196173 -3.895836,7.16808 3.921317,8.692124 5.319908,6.747498 2.207077,12.405587 1.388481,19.241571 1.832195,32.44656 0.110342,5.975638 10.11187,6.07702 9.029202,-0.60618 -1.068916,-9.007068 -1.406573,-11.993262 -2.560875,-18.214097 -0.06051,-0.326748 -4.77739,1.369752 -0.07808,-0.418273 C 73.05039,46.12872 71.651652,17.074624 59.661298,17.408428 Z m -0.707698,10.486075 c 1.209667,-0.07477 2.073098,0.510991 2.33149,2.046944 1.40267,9.956655 -8.916598,21.659989 -14.233931,25.140224 -1.4798,-10.905294 -2.577174,-14.320601 -2.535979,-14.434032 1.379872,-3.80577 10.118203,-12.486156 14.43842,-12.753136 z"
       style="opacity:0.35;fill:#cccccc;stroke:none;stroke-width:0.645548;stroke-dasharray:none;stroke-opacity:1"
       id="path8" /></g></svg>
