<?xml version="1.0" encoding="UTF-8" standalone="no"?>
<!-- Created with Inkscape (http://www.inkscape.org/) -->

<svg
   width="512"
   height="512"
   viewBox="0 0 135.46666 135.46667"
   version="1.1"
   id="svg1"
   xml:space="preserve"
   inkscape:version="1.3.2 (091e20ef0f, 2023-11-25, custom)"
   sodipodi:docname="prevail-minimal-logo.svg"
   xmlns:inkscape="http://www.inkscape.org/namespaces/inkscape"
   xmlns:sodipodi="http://sodipodi.sourceforge.net/DTD/sodipodi-0.dtd"
   xmlns="http://www.w3.org/2000/svg"
   xmlns:svg="http://www.w3.org/2000/svg"><sodipodi:namedview
     id="namedview1"
     pagecolor="#505050"
     bordercolor="#ffffff"
     borderopacity="1"
     inkscape:showpageshadow="0"
     inkscape:pageopacity="0"
     inkscape:pagecheckerboard="1"
     inkscape:deskcolor="#505050"
     inkscape:document-units="px"
     showguides="false"
     inkscape:zoom="1"
     inkscape:cx="-2.5"
     inkscape:cy="337"
     inkscape:window-width="1920"
     inkscape:window-height="1012"
     inkscape:window-x="0"
     inkscape:window-y="32"
     inkscape:window-maximized="1"
     inkscape:current-layer="g28"><sodipodi:guide
       position="67.733332,67.733332"
       orientation="-1,0"
       id="guide1"
       inkscape:locked="false"
       inkscape:label=""
       inkscape:color="rgb(0,134,229)" /><sodipodi:guide
       position="67.733332,67.733332"
       orientation="0,1"
       id="guide7"
       inkscape:locked="false"
       inkscape:label=""
       inkscape:color="rgb(0,134,229)" /><sodipodi:guide
       position="51.262293,79.340068"
       orientation="0.99906249,0.043291365"
       id="guide60"
       inkscape:locked="false" /><sodipodi:guide
       position="199.12459,108.32701"
       orientation="0.20627055,-0.978495"
       id="guide15"
       inkscape:locked="false" /><sodipodi:guide
       position="38.779821,66.820892"
       orientation="0.43989659,0.89804843"
       id="guide42"
       inkscape:locked="false" /></sodipodi:namedview><defs
     id="defs1" /><g
     inkscape:label="Layer 1"
     inkscape:groupmode="layer"
     id="layer1"><g
       id="g29"
       transform="matrix(1.0307896,0,0,1.0307896,-2.0854822,4.4465868)"><g
         id="g28"
         transform="matrix(0.8686441,0,0,0.8686441,8.8971702,8.8971724)"><g
           id="g1"
           transform="matrix(0.87500041,0,0,0.87500041,8.4666487,7.5547678)"><path
             style="color:#000000;fill:#ffffff;stroke-width:0.965838;-inkscape-stroke:none;paint-order:stroke fill markers"
             d="m 94.733802,-10.480767 -39.597112,28.723458 2.370163,7.701916 c 3.298552,0.166151 7.448185,0.995136 10.343544,2.675075 2.550559,1.47989 4.83647,3.76384 6.160084,6.616055 L 118.3351,26.830911 103.79137,19.643496 111.18894,1.8605816 92.539227,3.0685175 Z M 38.985353,9.6516851 c -1.447321,-0.058752 -2.927202,0.09703 -4.398069,0.4910899 h -5.57e-4 c -7.844458,2.102229 -12.51691,10.206192 -10.421584,18.001424 l 2.583099,9.611648 c -6.551676,2.778495 -12.056963,10.787643 -8.513524,16.92504 11.771476,19.733755 14.704233,40.615654 16.56383,61.636513 2.071951,7.70959 10.091073,12.32924 17.800194,10.25658 l 12.300099,-3.3044 5.58e-4,-5.6e-4 12.305117,-3.28824 c 7.71239,-2.06051 12.346821,-10.06957 10.286686,-17.78235 C 78.591197,83.064036 70.689569,63.51307 71.017118,40.537389 71.017121,33.144497 62.245005,29.2674 55.181841,30.136987 l -2.568607,-9.615549 h -5.57e-4 C 50.919815,14.185244 45.257078,9.9062772 38.985353,9.6516851 Z m -0.40246,7.4644539 c 2.016656,0.02387 3.871599,0.880173 5.175117,2.333931 -1.824572,0.865234 -2.81187,2.906798 -2.275959,4.898635 0.603234,2.24519 2.910687,3.577287 5.190725,2.969951 l 1.268695,4.747016 c -4.653274,1.24334 -9.307165,2.484647 -13.957319,3.739752 l -2.581984,-9.606631 c -1.051057,-3.911061 1.168537,-7.759998 5.123833,-8.820107 h 5.58e-4 c 0.693788,-0.185849 1.384115,-0.270502 2.056334,-0.262547 z m 6.579823,4.676223 h 5.58e-4 c 0.07901,0.215402 0.150599,0.435683 0.211263,0.662777 l 0.603133,2.258678 c -0.808404,0.214148 -1.637567,-0.266358 -1.853991,-1.074154 -0.212567,-0.795806 0.248587,-1.615612 1.039037,-1.847301 z m 11.43052,15.465707 c 3.297466,-0.216383 6.289734,1.865654 7.18407,5.214135 0.666071,2.782823 1.104791,4.830769 -0.364555,7.745953 -11.252654,3.005341 -22.507027,6.0054 -33.750858,9.043634 -2.730115,-1.789942 -3.375008,-3.783282 -4.189593,-6.526311 -1.028046,-3.82524 1.143606,-7.587205 4.968313,-8.615532 v 5.57e-4 c 8.24032,-2.214287 16.48019,-4.432394 24.726177,-6.625532 v -5.57e-4 c 0.478303,-0.127728 0.955379,-0.205436 1.426446,-0.236347 z m 13.213159,41.658463 c 3.37556,8.392118 6.866487,16.594445 10.965629,25.076798 1.501023,3.37793 -1.674936,7.72423 -5.501768,8.74764 -8.20732,2.19214 -16.414684,4.38285 -24.616364,6.59599 -3.825823,1.02718 -8.748795,-1.14917 -9.137838,-4.82506 -0.691203,-9.3955 -1.769117,-18.244455 -3.041858,-27.200018 10.44163,-2.807624 20.881752,-5.620629 31.332199,-8.39535 z"
             id="path15"
             sodipodi:nodetypes="cccsccccccscccccccccccccccssccccccccsccccccsccccccccsccccccc" /><path
             id="path12"
             style="opacity:0.65;fill:#bfbfbf;fill-opacity:1;stroke:none;stroke-width:6.36006;stroke-dasharray:none;stroke-opacity:1"
             d="m 63.522006,6.4810623 c -4.793964,0.2887946 -9.538756,1.1284105 -14.140711,2.5022726 1.813987,1.4300241 3.320156,3.1283781 4.225826,4.9315231 z M 19.466623,29.071752 C 10.241058,40.24705 5.1791904,54.277364 5.1447492,68.768643 5.2071144,88.595722 14.660285,107.22063 30.62735,118.97519 c -0.164498,-0.46496 -0.328767,-0.93049 -0.45876,-1.41418 l -0.109254,-0.40357 -0.03623,-0.41696 C 28.177942,95.882805 25.305609,75.894029 14.117033,57.137451 l -0.01672,-0.0301 -0.01728,-0.0301 c -2.760895,-4.781978 -1.880707,-10.334216 0.443703,-14.468468 1.621466,-2.883976 3.925248,-5.316124 6.632221,-7.174036 l -1.62433,-6.045812 c -0.02837,-0.105545 -0.04151,-0.211543 -0.068,-0.317173 z m 98.718527,2.668384 -42.488464,8.05588 c 0.01514,0.256129 0.115386,0.480232 0.115386,0.741373 v 0.03401 0.034 C 75.500743,62.443287 83.00761,81.190196 91.838546,100.1761 l 0.177818,0.38071 0.107025,0.40414 c 2.736335,10.24435 -3.438989,20.91478 -13.681951,23.65146 l -11.058162,2.95602 0.0022,-0.002 -10.314559,2.77151 c 3.518484,0.6437 7.085674,0.98461 10.662391,1.01897 34.566702,-5e-5 62.588542,-28.02189 62.588592,-62.588589 -0.002,-13.319839 -4.25413,-26.291563 -12.13678,-37.028507 z"
             sodipodi:nodetypes="cccccccccccccscccccscccccccccccc" /></g></g></g></g></svg>
