<?xml version="1.0" encoding="UTF-8" standalone="no"?>
<!-- Created with Inkscape (http://www.inkscape.org/) -->

<svg
   width="512"
   height="512"
   viewBox="0 0 135.46666 135.46667"
   version="1.1"
   id="svg1"
   xml:space="preserve"
   inkscape:version="1.3.2 (091e20ef0f, 2023-11-25, custom)"
   sodipodi:docname="prevail-color-minimal-logo.svg"
   xmlns:inkscape="http://www.inkscape.org/namespaces/inkscape"
   xmlns:sodipodi="http://sodipodi.sourceforge.net/DTD/sodipodi-0.dtd"
   xmlns="http://www.w3.org/2000/svg"
   xmlns:svg="http://www.w3.org/2000/svg"><sodipodi:namedview
     id="namedview1"
     pagecolor="#505050"
     bordercolor="#ffffff"
     borderopacity="1"
     inkscape:showpageshadow="0"
     inkscape:pageopacity="0"
     inkscape:pagecheckerboard="1"
     inkscape:deskcolor="#505050"
     inkscape:document-units="px"
     showguides="false"
     inkscape:zoom="1"
     inkscape:cx="-2.5"
     inkscape:cy="337"
     inkscape:window-width="1920"
     inkscape:window-height="1012"
     inkscape:window-x="0"
     inkscape:window-y="32"
     inkscape:window-maximized="1"
     inkscape:current-layer="g28"><sodipodi:guide
       position="67.733332,67.733332"
       orientation="-1,0"
       id="guide1"
       inkscape:locked="false"
       inkscape:label=""
       inkscape:color="rgb(0,134,229)" /><sodipodi:guide
       position="67.733332,67.733332"
       orientation="0,1"
       id="guide7"
       inkscape:locked="false"
       inkscape:label=""
       inkscape:color="rgb(0,134,229)" /><sodipodi:guide
       position="51.262293,79.340068"
       orientation="0.99906249,0.043291365"
       id="guide60"
       inkscape:locked="false" /><sodipodi:guide
       position="199.12459,108.32701"
       orientation="0.20627055,-0.978495"
       id="guide15"
       inkscape:locked="false" /><sodipodi:guide
       position="38.779821,66.820892"
       orientation="0.43989659,0.89804843"
       id="guide42"
       inkscape:locked="false" /></sodipodi:namedview><defs
     id="defs1" /><g
     inkscape:label="Layer 1"
     inkscape:groupmode="layer"
     id="layer1"><g
       id="g29"
       transform="matrix(1.0307896,0,0,1.0307896,-2.0854822,4.4465868)"><g
         id="g28"
         transform="matrix(0.8686441,0,0,0.8686441,8.8971702,8.8971724)"><path
           style="color:#000000;fill:#ffffff;stroke-width:0.845109;-inkscape-stroke:none;paint-order:stroke fill markers"
           d="m 42.578849,15.999996 c -1.266407,-0.05141 -2.561303,0.0849 -3.848313,0.429704 h -4.87e-4 c -6.863904,1.839451 -10.952301,8.930422 -9.11889,15.751253 l 2.260212,8.410196 c -5.732719,2.431185 -10.549847,9.439192 -7.449337,14.809417 10.300047,17.267044 12.86621,35.538714 14.493358,53.931974 1.812958,6.74589 8.829693,10.78809 15.575178,8.97451 l 10.762591,-2.89135 4.88e-4,-4.9e-4 10.766983,-2.87721 c 6.748344,-1.80295 10.803473,-8.81088 9.000854,-15.559564 C 77.233978,80.235833 70.320051,63.12873 70.606656,43.025 c 3e-6,-6.468784 -7.675602,-9.861245 -13.855874,-9.100356 l -2.247532,-8.41361 h -4.87e-4 c -1.481255,-5.544172 -6.436152,-9.28827 -11.923914,-9.511038 z m -0.352153,6.5314 c 1.764575,0.02089 3.387651,0.770152 4.528229,2.042191 -1.596501,0.75708 -2.460387,2.543449 -1.991465,4.286308 0.52783,1.964542 2.546853,3.130127 4.541887,2.598708 l 1.110108,4.153641 c -4.071616,1.087923 -8.143773,2.174067 -12.212659,3.272284 l -2.259237,-8.405806 c -0.919676,-3.42218 1.02247,-6.790001 4.483356,-7.717597 h 4.88e-4 c 0.607065,-0.162618 1.211101,-0.236689 1.799293,-0.229729 z m 5.757348,4.091697 h 4.88e-4 c 0.06913,0.188477 0.131774,0.381223 0.184855,0.579931 l 0.527742,1.976344 c -0.707354,0.187379 -1.432872,-0.233064 -1.622243,-0.939885 -0.185996,-0.696331 0.217514,-1.413662 0.909158,-1.61639 z m 10.001709,13.5325 c 2.885285,-0.189335 5.50352,1.632448 6.286065,4.562371 0.582812,2.434971 0.966692,4.226925 -0.318986,6.777712 -9.846077,2.629674 -19.693658,5.254727 -29.532015,7.913183 -2.388852,-1.5662 -2.953133,-3.310373 -3.665895,-5.710525 -0.899541,-3.347086 1.000655,-6.638807 4.347276,-7.538594 v 4.88e-4 c 7.210283,-1.937502 14.420173,-3.878347 21.635415,-5.797343 v -4.88e-4 c 0.418515,-0.111762 0.835957,-0.179756 1.24814,-0.206804 z m 11.56152,36.451173 c 2.953616,7.343106 6.008179,14.520146 9.59493,21.942208 1.313396,2.955686 -1.46557,6.758706 -4.814049,7.654186 -7.181409,1.91813 -14.362856,3.835 -21.539329,5.7715 -3.347597,0.89878 -7.655199,-1.00553 -7.995612,-4.22193 C 44.18841,99.531661 43.245235,91.788822 42.131586,83.9527 51.268017,81.496028 60.403128,79.034648 69.547273,76.606766 Z"
           id="path1" /><path
           style="color:#000000;fill:#ff55ff;stroke-width:0.845109;-inkscape-stroke:none;paint-order:stroke fill markers;fill-opacity:1"
           d="M 91.358764,-1.6159076 56.711275,23.51713 l 2.073894,6.73918 c 2.886234,0.145382 6.517165,0.870744 9.050605,2.340691 2.23174,1.294905 4.231913,3.293362 5.390076,5.789051 L 112.00991,31.031826 99.28414,24.742835 105.75702,9.1827775 89.43851,10.239722 Z"
           id="path15" /><path
           id="path12"
           style="opacity:0.65;fill:#55ffff;fill-opacity:1;stroke:none;stroke-width:5.56506;stroke-dasharray:none;stroke-opacity:1"
           d="m 64.04843,13.2257 c -4.19472,0.252695 -8.346415,0.98736 -12.373128,2.18949 1.587239,1.251271 2.905138,2.737332 3.6976,4.315084 z M 25.499952,32.992563 c -8.072373,9.77839 -12.50151,22.054921 -12.531646,34.734796 0.05457,17.348702 8.326098,33.645501 22.297287,43.930751 -0.143936,-0.40684 -0.287672,-0.81418 -0.401416,-1.23741 l -0.0956,-0.35312 -0.0317,-0.36484 C 33.12236,91.452261 30.609067,73.962074 20.819058,57.550061 l -0.01463,-0.02634 -0.01512,-0.02634 c -2.415784,-4.184233 -1.645619,-9.042443 0.388241,-12.659916 1.418783,-2.52348 3.434593,-4.65161 5.803196,-6.277284 l -1.42129,-5.290088 c -0.02482,-0.09235 -0.03632,-0.1851 -0.0595,-0.277527 z M 111.8787,35.3274 74.70128,42.376298 c 0.01325,0.224113 0.100963,0.420203 0.100963,0.648702 v 0.02976 0.02975 c -0.272413,19.10816 6.296098,35.511713 14.023171,52.124386 l 0.155591,0.333122 0.09365,0.353622 c 2.394294,8.96381 -3.009117,18.30044 -11.971713,20.69504 l -9.675896,2.58652 0.0019,-0.002 -9.025244,2.42507 c 3.078675,0.56324 6.199968,0.86153 9.329597,0.8916 30.245878,-5e-5 54.765001,-24.519167 54.765041,-54.765043 -0.002,-11.654865 -3.72236,-23.005129 -10.61968,-32.399959 z"
           sodipodi:nodetypes="cccccccccccccscccccscccccccccccc" /></g></g></g></svg>
