<?xml version="1.0" encoding="UTF-8" standalone="no"?>
<svg
   height="48"
   width="48"
   version="1.1"
   id="svg4"
   sodipodi:docname="weather-tornado.svg"
   inkscape:version="1.3.2 (091e20ef0f, 2023-11-25, custom)"
   xmlns:inkscape="http://www.inkscape.org/namespaces/inkscape"
   xmlns:sodipodi="http://sodipodi.sourceforge.net/DTD/sodipodi-0.dtd"
   xmlns="http://www.w3.org/2000/svg"
   xmlns:svg="http://www.w3.org/2000/svg">
  <defs
     id="defs4">
    <linearGradient
       x1="0"
       y1="0"
       x2="1"
       y2="0"
       gradientUnits="userSpaceOnUse"
       gradientTransform="matrix(43,0,0,-43,591.21991,409.15497)"
       spreadMethod="pad"
       id="linearGradient4">
      <stop
         style="stop-opacity:1;stop-color:#d0e8f8"
         offset="0"
         id="stop3" />
      <stop
         style="stop-opacity:1;stop-color:#e2eef9"
         offset="1"
         id="stop4" />
    </linearGradient>
    <linearGradient
       x1="0"
       y1="0"
       x2="1"
       y2="0"
       gradientUnits="userSpaceOnUse"
       gradientTransform="matrix(25,0,0,-25,599.21991,399.52997)"
       spreadMethod="pad"
       id="linearGradient6">
      <stop
         style="stop-opacity:1;stop-color:#d0e8f8"
         offset="0"
         id="stop5" />
      <stop
         style="stop-opacity:1;stop-color:#e2eef9"
         offset="1"
         id="stop6" />
    </linearGradient>
    <linearGradient
       x1="0"
       y1="0"
       x2="1"
       y2="0"
       gradientUnits="userSpaceOnUse"
       gradientTransform="matrix(22,0,0,-22,605.21991,389.90497)"
       spreadMethod="pad"
       id="linearGradient8">
      <stop
         style="stop-opacity:1;stop-color:#d0e8f8"
         offset="0"
         id="stop7" />
      <stop
         style="stop-opacity:1;stop-color:#e2eef9"
         offset="1"
         id="stop8" />
    </linearGradient>
    <linearGradient
       x1="0"
       y1="0"
       x2="1"
       y2="0"
       gradientUnits="userSpaceOnUse"
       gradientTransform="matrix(16,0,0,-16,605.21991,380.27997)"
       spreadMethod="pad"
       id="linearGradient10">
      <stop
         style="stop-opacity:1;stop-color:#d0e8f8"
         offset="0"
         id="stop9" />
      <stop
         style="stop-opacity:1;stop-color:#e2eef9"
         offset="1"
         id="stop10" />
    </linearGradient>
    <linearGradient
       x1="0"
       y1="0"
       x2="1"
       y2="0"
       gradientUnits="userSpaceOnUse"
       gradientTransform="matrix(5,0,0,-5,606.71991,370.65497)"
       spreadMethod="pad"
       id="linearGradient12">
      <stop
         style="stop-opacity:1;stop-color:#d0e8f8"
         offset="0"
         id="stop11" />
      <stop
         style="stop-opacity:1;stop-color:#e2eef9"
         offset="1"
         id="stop12" />
    </linearGradient>
  </defs>
  <sodipodi:namedview
     id="namedview4"
     pagecolor="#505050"
     bordercolor="#ffffff"
     borderopacity="1"
     inkscape:showpageshadow="0"
     inkscape:pageopacity="0"
     inkscape:pagecheckerboard="1"
     inkscape:deskcolor="#505050"
     inkscape:zoom="6.234375"
     inkscape:cx="63.919799"
     inkscape:cy="63.919799"
     inkscape:window-width="1920"
     inkscape:window-height="1011"
     inkscape:window-x="0"
     inkscape:window-y="0"
     inkscape:window-maximized="1"
     inkscape:current-layer="svg4" />
  <g
     id="g465"
     transform="matrix(0.7151163,0,0,0.7151163,-560.2214,-503.73965)"
     style="fill:#ffffff">
    <path
       id="path4"
       d="m 593.22,411.155 c -1.105,0 -2,-0.895 -2,-2 v 0 c 0,-1.105 0.895,-2 2,-2 v 0 h 38.999 c 1.106,0 2.001,0.895 2.001,2 v 0 c 0,1.105 -0.895,2 -2.001,2 v 0 z"
       transform="matrix(1.3333333,0,0,-1.3333333,0,1257.8507)"
       style="fill:#ffffff;stroke:none" />
    <path
       id="path6"
       d="m 601.22,401.53 c -1.105,0 -2,-0.896 -2,-2 v 0 c 0,-1.104 0.895,-2 2,-2 v 0 h 20.999 c 1.106,0 2.001,0.896 2.001,2 v 0 c 0,1.104 -0.895,2 -2.001,2 v 0 z"
       transform="matrix(1.3333333,0,0,-1.3333333,0,1257.8507)"
       style="fill:#ffffff;stroke:none" />
    <path
       id="path8"
       d="m 607.22,391.905 c -1.105,0 -2.001,-0.896 -2.001,-2 v 0 c 0,-1.104 0.896,-2 2.001,-2 v 0 h 18 c 1.104,0 2,0.896 2,2 v 0 c 0,1.104 -0.896,2 -2,2 v 0 z"
       transform="matrix(1.3333333,0,0,-1.3333333,0,1257.8507)"
       style="fill:#ffffff;stroke:none" />
    <path
       id="path10"
       d="m 607.22,382.28 c -1.105,0 -2.001,-0.895 -2.001,-1.999 v 0 c 0,-1.105 0.896,-2 2.001,-2 v 0 h 12 c 1.104,0 2,0.895 2,2 v 0 c 0,1.104 -0.896,1.999 -2,1.999 v 0 z"
       transform="matrix(1.3333333,0,0,-1.3333333,0,1257.8507)"
       style="fill:#ffffff;stroke:none" />
    <path
       id="path12"
       d="m 608.719,372.656 c -1.104,0 -1.999,-0.896 -1.999,-2.001 v 0 c 0,-1.104 0.895,-2 1.999,-2 v 0 h 1 c 1.106,0 2.001,0.896 2.001,2 v 0 c 0,1.105 -0.895,2.001 -2.001,2.001 v 0 z"
       transform="matrix(1.3333333,0,0,-1.3333333,0,1257.8507)"
       style="fill:#ffffff;stroke:none" />
  </g>
</svg>
