<?xml version="1.0" encoding="UTF-8" standalone="no"?>
<svg
   width="48"
   height="48"
   version="1"
   id="svg4"
   sodipodi:docname="weather-mist.svg"
   inkscape:version="1.3.2 (091e20ef0f, 2023-11-25, custom)"
   xmlns:inkscape="http://www.inkscape.org/namespaces/inkscape"
   xmlns:sodipodi="http://sodipodi.sourceforge.net/DTD/sodipodi-0.dtd"
   xmlns="http://www.w3.org/2000/svg"
   xmlns:svg="http://www.w3.org/2000/svg">
  <defs
     id="defs4" />
  <sodipodi:namedview
     id="namedview4"
     pagecolor="#505050"
     bordercolor="#ffffff"
     borderopacity="1"
     inkscape:showpageshadow="0"
     inkscape:pageopacity="0"
     inkscape:pagecheckerboard="1"
     inkscape:deskcolor="#505050"
     inkscape:zoom="16.770833"
     inkscape:cx="24"
     inkscape:cy="24"
     inkscape:window-width="1920"
     inkscape:window-height="1011"
     inkscape:window-x="0"
     inkscape:window-y="0"
     inkscape:window-maximized="1"
     inkscape:current-layer="svg4" />
  <g
     id="g4"
     transform="matrix(1.0789474,0,0,1.0789474,-0.8157902,-2.4342113)">
    <path
       style="opacity:0.2"
       d="m 6,11 c -1.108,0 -2,0.892 -2,2 0,1.108 0.892,2 2,2 h 12 c 1.108,0 2,-0.892 2,-2 0,-1.108 -0.892,-2 -2,-2 z m 8,8 c -1.108,0 -2,0.892 -2,2 0,1.108 0.892,2 2,2 h 20 c 1.108,0 2,-0.892 2,-2 0,-1.108 -0.892,-2 -2,-2 z m -6,8 c -1.108,0 -2,0.892 -2,2 0,1.108 0.892,2 2,2 h 22 c 1.108,0 2,-0.892 2,-2 0,-1.108 -0.892,-2 -2,-2 z m 8,8 c -1.108,0 -2,0.892 -2,2 0,1.108 0.892,2 2,2 h 24 c 1.108,0 2,-0.892 2,-2 0,-1.108 -0.892,-2 -2,-2 z"
       id="path3" />
    <path
       style="fill:#ffffff"
       d="m 6,10 c -1.108,0 -2,0.892 -2,2 0,1.108 0.892,2 2,2 h 12 c 1.108,0 2,-0.892 2,-2 0,-1.108 -0.892,-2 -2,-2 z m 8,8 c -1.108,0 -2,0.892 -2,2 0,1.108 0.892,2 2,2 h 20 c 1.108,0 2,-0.892 2,-2 0,-1.108 -0.892,-2 -2,-2 z m -6,8 c -1.108,0 -2,0.892 -2,2 0,1.108 0.892,2 2,2 h 22 c 1.108,0 2,-0.892 2,-2 0,-1.108 -0.892,-2 -2,-2 z m 8,8 c -1.108,0 -2,0.892 -2,2 0,1.108 0.892,2 2,2 h 24 c 1.108,0 2,-0.892 2,-2 0,-1.108 -0.892,-2 -2,-2 z"
       id="path4" />
  </g>
</svg>
