<?xml version="1.0" encoding="UTF-8" standalone="no"?>
<svg
   width="48"
   height="48"
   version="1"
   id="svg10"
   sodipodi:docname="weather-overcast.svg"
   inkscape:version="1.3.2 (091e20ef0f, 2023-11-25, custom)"
   xmlns:inkscape="http://www.inkscape.org/namespaces/inkscape"
   xmlns:sodipodi="http://sodipodi.sourceforge.net/DTD/sodipodi-0.dtd"
   xmlns="http://www.w3.org/2000/svg"
   xmlns:svg="http://www.w3.org/2000/svg">
  <defs
     id="defs10" />
  <sodipodi:namedview
     id="namedview10"
     pagecolor="#505050"
     bordercolor="#ffffff"
     borderopacity="1"
     inkscape:showpageshadow="0"
     inkscape:pageopacity="0"
     inkscape:pagecheckerboard="1"
     inkscape:deskcolor="#505050"
     inkscape:zoom="16.770833"
     inkscape:cx="24"
     inkscape:cy="24"
     inkscape:window-width="1920"
     inkscape:window-height="1011"
     inkscape:window-x="0"
     inkscape:window-y="0"
     inkscape:window-maximized="1"
     inkscape:current-layer="svg10" />
  <circle
     style="opacity:0.2"
     cx="23"
     cy="33"
     r="8"
     id="circle2" />
  <path
     style="opacity:0.2"
     d="m 23,25 a 8,8 0 0 0 -8,8 8,8 0 0 0 0.01172,0.355469 A 6,6 0 0 0 13,33 6,6 0 0 0 7,39 6,6 0 0 0 13,45 H 33 A 6,6 0 0 0 39,39 6,6 0 0 0 33,33 6,6 0 0 0 30.982422,33.355469 8,8 0 0 0 31,33 8,8 0 0 0 23,25 Z"
     id="path3" />
  <circle
     style="fill:#ffffff"
     cx="13"
     cy="38"
     r="6"
     id="circle3" />
  <circle
     style="fill:#ffffff"
     cx="23"
     cy="32"
     r="8"
     id="circle4" />
  <circle
     style="fill:#ffffff"
     cx="33"
     cy="38"
     r="6"
     id="circle5" />
  <rect
     style="fill:#ffffff"
     width="20"
     height="8"
     x="13"
     y="36"
     id="rect5" />
  <path
     style="opacity:0.2"
     d="m 11,10 a 6,6 0 0 0 -6,6 4,4 0 0 0 -4,4 4,4 0 0 0 4,4 H 16.5 V 23.96484 A 5,5 0 0 0 17,24 5,5 0 0 0 22,19 5,5 0 0 0 17,14 5,5 0 0 0 16.664062,14.023438 6,6 0 0 0 11,10 Z"
     id="path5" />
  <circle
     style="fill:#ffffff"
     cx="5"
     cy="19"
     r="4"
     id="circle6" />
  <circle
     style="fill:#ffffff"
     cx="11"
     cy="15"
     r="6"
     id="circle7" />
  <circle
     style="fill:#ffffff"
     cx="17"
     cy="18"
     r="5"
     id="circle8" />
  <rect
     style="fill:#ffffff"
     width="11.5"
     height="8"
     x="5"
     y="15"
     id="rect8" />
  <path
     style="opacity:0.2"
     d="M 39,13 A 7,7 0 0 0 33.5,18.5 5,5 0 0 0 32,17 a 5,5 0 0 0 -5,5 5,5 0 0 0 5,5 h 7 a 7,7 0 0 0 7,-7 7,7 0 0 0 -7,-7 z"
     id="path8" />
  <circle
     style="fill:#ffffff"
     cx="-39"
     cy="19"
     r="7"
     transform="scale(-1,1)"
     id="circle9" />
  <circle
     style="fill:#ffffff"
     cx="-32"
     cy="21"
     r="5"
     transform="scale(-1,1)"
     id="circle10" />
  <rect
     style="fill:#ffffff"
     width="7"
     height="6"
     x="32"
     y="20"
     id="rect10" />
</svg>
