<?xml version="1.0" encoding="UTF-8" standalone="no"?>
<svg
   width="48"
   height="48"
   version="1"
   id="svg6"
   sodipodi:docname="weather-clear.svg"
   inkscape:version="1.3.2 (091e20ef0f, 2023-11-25, custom)"
   xmlns:inkscape="http://www.inkscape.org/namespaces/inkscape"
   xmlns:sodipodi="http://sodipodi.sourceforge.net/DTD/sodipodi-0.dtd"
   xmlns="http://www.w3.org/2000/svg"
   xmlns:svg="http://www.w3.org/2000/svg">
  <defs
     id="defs6" />
  <sodipodi:namedview
     id="namedview6"
     pagecolor="#505050"
     bordercolor="#ffffff"
     borderopacity="1"
     inkscape:showpageshadow="0"
     inkscape:pageopacity="0"
     inkscape:pagecheckerboard="1"
     inkscape:deskcolor="#505050"
     inkscape:zoom="5.9293849"
     inkscape:cx="-5.9871303"
     inkscape:cy="37.862275"
     inkscape:window-width="1920"
     inkscape:window-height="1011"
     inkscape:window-x="0"
     inkscape:window-y="0"
     inkscape:window-maximized="1"
     inkscape:current-layer="g6" />
  <g
     id="g6"
     transform="matrix(1.4137931,0,0,1.4137931,-19.827586,0.67241385)">
    <path
       style="opacity:0.2"
       d="m 31,3 -4,4 h -6 v 6 l -4,4 4,4 v 6 h 6 l 4,4 4,-4 h 6 v -6 l 4,-4 -4,-4 V 7 h -6 z"
       id="path3" />
    <path
       style="fill:#ff8a47"
       d="m 31,2 -4,4 h -6 v 6 l -4,4 4,4 v 6 h 6 l 4,4 4,-4 h 6 v -6 l 4,-4 -4,-4 V 6 h -6 z"
       id="path4" />
    <circle
       style="opacity:0.2"
       cx="31"
       cy="17"
       r="8"
       id="circle4" />
    <path
       style="opacity:0.2;fill:#ffffff"
       d="m 31,2 -4,4 h -6 v 1 h 6 l 4,-4 4,4 h 6 V 6 H 35 Z M 21,12 17,16 17.5,16.5 21,13 Z m 20,0 v 1 L 44.5,16.5 45,16 Z"
       id="path5" />
    <g
       id="g1"
       transform="matrix(1.2494281,0,0,1.2494281,-7.7322718,-3.99085)">
      <circle
         style="fill:#ffcc42"
         cx="31"
         cy="16"
         r="8"
         id="circle5" />
      <path
         style="opacity:0.2;fill:#ffffff"
         d="m 31,8 a 8,8 0 0 0 -8,8 8,8 0 0 0 0.02148,0.576172 A 8,8 0 0 1 31,9 8,8 0 0 1 38.978516,16.423828 8,8 0 0 0 39,16 8,8 0 0 0 31,8 Z"
         id="path6" />
    </g>
  </g>
</svg>
