<?xml version="1.0" encoding="UTF-8" standalone="no"?>
<svg
   width="48"
   height="48"
   version="1"
   id="svg25"
   sodipodi:docname="weather-few-clouds-night.svg"
   inkscape:version="1.3.2 (091e20ef0f, 2023-11-25, custom)"
   xmlns:inkscape="http://www.inkscape.org/namespaces/inkscape"
   xmlns:sodipodi="http://sodipodi.sourceforge.net/DTD/sodipodi-0.dtd"
   xmlns="http://www.w3.org/2000/svg"
   xmlns:svg="http://www.w3.org/2000/svg">
  <defs
     id="defs25" />
  <sodipodi:namedview
     id="namedview25"
     pagecolor="#505050"
     bordercolor="#ffffff"
     borderopacity="1"
     inkscape:showpageshadow="0"
     inkscape:pageopacity="0"
     inkscape:pagecheckerboard="1"
     inkscape:deskcolor="#505050"
     inkscape:zoom="16.770833"
     inkscape:cx="24"
     inkscape:cy="24"
     inkscape:window-width="1920"
     inkscape:window-height="1011"
     inkscape:window-x="0"
     inkscape:window-y="0"
     inkscape:window-maximized="1"
     inkscape:current-layer="svg25" />
  <g
     id="g1"
     transform="translate(2.5163705,-0.50000002)">
    <path
       style="opacity:0.2"
       d="M 33.444462,5.0017263 C 32.405781,5.0531746 31.798841,6.195477 32.337537,7.085034 33.246331,8.586316 33.9998,10.306803 34,12.061725 34,17.385486 29.441753,21.996854 24.118754,22 22.952928,21.9909 21.797089,21.44491 20.710355,21.02263 19.489862,20.549069 18.361704,21.88936 19.036556,23.011161 21.266571,26.71839 25.278846,28.991638 29.605096,29 h 0.0018 c 6.810166,0 12.360363,-5.550196 12.360363,-12.360363 -0.0014,-5.125628 -3.175776,-9.7282863 -7.966641,-11.5502866 -0.177342,-0.067296 -0.366701,-0.097131 -0.556144,-0.087624 z"
       id="path3" />
    <path
       style="fill:#ffcc42"
       d="M 33.444462,4.0017263 C 32.405781,4.0531746 31.798841,5.195477 32.337537,6.0850337 33.246331,7.586316 33.9998,9.306803 34,11.061725 34,16.385486 29.441753,20.996854 24.118754,21 22.952928,20.9909 21.797089,20.44491 20.710355,20.02263 19.489862,19.549069 18.361704,20.88936 19.036556,22.011161 21.266571,25.71839 25.278846,27.991638 29.605096,28 h 0.0018 c 6.810166,0 12.360363,-5.550196 12.360363,-12.360363 -0.0014,-5.125628 -3.175776,-9.7282863 -7.966641,-11.5502866 -0.177342,-0.067296 -0.366701,-0.097131 -0.556144,-0.087624 z"
       id="path4" />
    <path
       style="fill:#ffffff"
       transform="matrix(0.27371119,-0.15802723,0.15802723,0.27371119,21.154238,12.137104)"
       d="M 14.5,14.669873 14.414815,18.352952 16.330127,21.5 12.647048,21.414815 9.5000002,23.330127 9.5851855,19.647048 7.6698729,16.5 11.352952,16.58518 Z"
       id="path5" />
    <path
       style="fill:#ffffff"
       transform="matrix(0.13072234,-0.07547258,0.07547258,0.13072234,9.7305171,10.155111)"
       d="M 14.5,14.669873 14.414815,18.352952 16.330127,21.5 12.647048,21.414815 9.5000002,23.330127 9.5851855,19.647048 7.6698729,16.5 11.352952,16.58518 Z"
       id="path6" />
    <path
       style="fill:#ffffff"
       transform="matrix(0.27371119,-0.15802723,0.15802723,0.27371119,6.271659,18.254525)"
       d="M 14.5,14.669873 14.414815,18.352952 16.330127,21.5 12.647048,21.414815 9.5000002,23.330127 9.5851855,19.647048 7.6698729,16.5 11.352952,16.58518 Z"
       id="path7" />
    <path
       style="fill:#ffffff"
       transform="matrix(0.13072234,-0.07547258,0.07547258,0.13072234,20.730517,8.155111)"
       d="M 14.5,14.669873 14.414815,18.352952 16.330127,21.5 12.647048,21.414815 9.5000002,23.330127 9.5851855,19.647048 7.6698729,16.5 11.352952,16.58518 Z"
       id="path8" />
    <path
       style="opacity:0.2;fill:#ffffff"
       d="M 33.445312,4.0019531 C 32.487617,4.04939 31.8984,5.0240398 32.234375,5.8730469 32.421232,5.3988106 32.866014,5.0306471 33.445312,5.0019531 33.634756,4.9924461 33.822658,5.0225477 34,5.0898438 c 4.629448,1.7606121 7.748824,6.1168012 7.955078,11.0332032 0.0063,-0.160904 0.01172,-0.321981 0.01172,-0.484375 C 41.965397,10.513044 38.790865,5.911844 34,4.0898438 33.822658,4.0225478 33.634756,3.9924461 33.445312,4.0019531 Z m 0.53711,7.6093749 C 33.682316,16.698815 29.257981,20.996963 24.119141,21 c -1.165826,-0.0091 -2.32147,-0.554282 -3.408203,-0.976562 -1.145615,-0.444508 -2.209177,0.708335 -1.777344,1.779296 0.259637,-0.646133 0.999094,-1.081263 1.777344,-0.779296 C 21.797671,21.445718 22.953315,21.9909 24.119141,22 29.44214,21.996854 34,17.386261 34,12.0625 c -1.7e-5,-0.150392 -0.0069,-0.301402 -0.01758,-0.451172 z"
       id="path9" />
    <path
       style="fill:#ffffff"
       transform="matrix(-0.15802723,-0.27371119,0.27371119,-0.15802723,17.695814,45.706779)"
       d="M 14.5,14.669873 14.414815,18.352952 16.330127,21.5 12.647048,21.414815 9.5000002,23.330127 9.5851855,19.647048 7.6698729,16.5 11.352952,16.58518 Z"
       id="path10" />
    <path
       style="fill:#ffffff"
       transform="matrix(-0.07547258,-0.13072234,0.13072234,-0.07547258,23.155111,38.735811)"
       d="M 14.5,14.669873 14.414815,18.352952 16.330127,21.5 12.647048,21.414815 9.5000002,23.330127 9.5851855,19.647048 7.6698729,16.5 11.352952,16.58518 Z"
       id="path11" />
    <path
       style="fill:#ffffff"
       transform="matrix(-0.22323181,-0.38664883,0.38664883,-0.22323181,13.821772,38.370872)"
       d="M 14.5,14.669873 14.414815,18.352952 16.330127,21.5 12.647048,21.414815 9.5000002,23.330127 9.5851855,19.647048 7.6698729,16.5 11.352952,16.58518 Z"
       id="path12" />
    <path
       style="fill:#ffffff"
       transform="matrix(-0.15802723,-0.27371119,0.27371119,-0.15802723,25.137104,37.845762)"
       d="M 14.5,14.669873 14.414815,18.352952 16.330127,21.5 12.647048,21.414815 9.5000002,23.330127 9.5851855,19.647048 7.6698729,16.5 11.352952,16.58518 Z"
       id="path13" />
    <path
       style="fill:#ffffff"
       transform="matrix(-0.07547258,-0.13072234,0.13072234,-0.07547258,11.437673,31.990557)"
       d="M 14.5,14.669873 14.414815,18.352952 16.330127,21.5 12.647048,21.414815 9.5000002,23.330127 9.5851855,19.647048 7.6698729,16.5 11.352952,16.58518 Z"
       id="path14" />
    <path
       style="fill:#ffffff"
       transform="matrix(0.27371119,-0.15802723,0.15802723,0.27371119,31.154238,28.137104)"
       d="M 14.5,14.669873 14.414815,18.352952 16.330127,21.5 12.647048,21.414815 9.5000002,23.330127 9.5851855,19.647048 7.6698729,16.5 11.352952,16.58518 Z"
       id="path15" />
    <path
       style="fill:#ffffff"
       transform="matrix(0.27371119,-0.15802723,0.15802723,0.27371119,1.1542378,25.254525)"
       d="M 14.5,14.669873 14.414815,18.352952 16.330127,21.5 12.647048,21.414815 9.5000002,23.330127 9.5851855,19.647048 7.6698729,16.5 11.352952,16.58518 Z"
       id="path16" />
    <path
       style="fill:#ffffff"
       transform="matrix(0.13072234,-0.07547258,0.07547258,0.13072234,10.997353,34.667221)"
       d="M 14.5,14.669873 14.414815,18.352952 16.330127,21.5 12.647048,21.414815 9.5000002,23.330127 9.5851855,19.647048 7.6698729,16.5 11.352952,16.58518 Z"
       id="path17" />
    <path
       style="fill:#ffffff"
       transform="matrix(0.13072234,-0.07547258,0.07547258,0.13072234,4.2641887,16.155111)"
       d="M 14.5,14.669873 14.414815,18.352952 16.330127,21.5 12.647048,21.414815 9.5000002,23.330127 9.5851855,19.647048 7.6698729,16.5 11.352952,16.58518 Z"
       id="path18" />
    <path
       style="fill:#ffffff"
       transform="matrix(-0.07547258,-0.13072234,0.13072234,-0.07547258,29.155111,42.735811)"
       d="M 14.5,14.669873 14.414815,18.352952 16.330127,21.5 12.647048,21.414815 9.5000002,23.330127 9.5851855,19.647048 7.6698729,16.5 11.352952,16.58518 Z"
       id="path19" />
    <circle
       style="opacity:0.2"
       cx="23"
       cy="33"
       r="8"
       id="circle19" />
    <path
       style="opacity:0.2"
       d="m 23,25 a 8,8 0 0 0 -8,8 8,8 0 0 0 0.01172,0.355469 A 6,6 0 0 0 13,33 6,6 0 0 0 7,39 6,6 0 0 0 13,45 H 33 A 6,6 0 0 0 39,39 6,6 0 0 0 33,33 6,6 0 0 0 30.982422,33.355469 8,8 0 0 0 31,33 8,8 0 0 0 23,25 Z"
       id="path20" />
    <circle
       style="fill:#ffffff"
       cx="13"
       cy="38"
       r="6"
       id="circle20" />
    <circle
       style="fill:#ffffff"
       cx="23"
       cy="32"
       r="8"
       id="circle21" />
    <circle
       style="fill:#ffffff"
       cx="33"
       cy="38"
       r="6"
       id="circle22" />
    <rect
       style="fill:#ffffff"
       width="20"
       height="8"
       x="13"
       y="36"
       id="rect22" />
    <path
       style="opacity:0.2"
       d="m 11,10 a 6,6 0 0 0 -6,6 4,4 0 0 0 -4,4 4,4 0 0 0 4,4 H 16.5 V 23.96484 A 5,5 0 0 0 17,24 5,5 0 0 0 22,19 5,5 0 0 0 17,14 5,5 0 0 0 16.664062,14.023438 6,6 0 0 0 11,10 Z"
       id="path22" />
    <circle
       style="fill:#ffffff"
       cx="5"
       cy="19"
       r="4"
       id="circle23" />
    <circle
       style="fill:#ffffff"
       cx="11"
       cy="15"
       r="6"
       id="circle24" />
    <circle
       style="fill:#ffffff"
       cx="17"
       cy="18"
       r="5"
       id="circle25" />
    <rect
       style="fill:#ffffff"
       width="11.5"
       height="8"
       x="5"
       y="15"
       id="rect25" />
  </g>
</svg>
