<?xml version="1.0" encoding="UTF-8" standalone="no"?>
<svg
   width="48"
   height="48"
   version="1"
   id="svg12"
   sodipodi:docname="weather-few-clouds.svg"
   inkscape:version="1.3.2 (091e20ef0f, 2023-11-25, custom)"
   xmlns:inkscape="http://www.inkscape.org/namespaces/inkscape"
   xmlns:sodipodi="http://sodipodi.sourceforge.net/DTD/sodipodi-0.dtd"
   xmlns="http://www.w3.org/2000/svg"
   xmlns:svg="http://www.w3.org/2000/svg">
  <defs
     id="defs12" />
  <sodipodi:namedview
     id="namedview12"
     pagecolor="#505050"
     bordercolor="#ffffff"
     borderopacity="1"
     inkscape:showpageshadow="0"
     inkscape:pageopacity="0"
     inkscape:pagecheckerboard="1"
     inkscape:deskcolor="#505050"
     inkscape:zoom="16.770833"
     inkscape:cx="24"
     inkscape:cy="24"
     inkscape:window-width="1920"
     inkscape:window-height="1011"
     inkscape:window-x="0"
     inkscape:window-y="0"
     inkscape:window-maximized="1"
     inkscape:current-layer="svg12" />
  <g
     id="g1"
     transform="matrix(0.95348837,0,0,0.95348837,2.0697675,1.5930233)">
    <path
       style="opacity:0.2"
       d="m 31,3 -4,4 h -6 v 6 l -4,4 4,4 v 6 h 6 l 4,4 4,-4 h 6 v -6 l 4,-4 -4,-4 V 7 h -6 z"
       id="path3" />
    <path
       style="fill:#ff8a47"
       d="m 31,2 -4,4 h -6 v 6 l -4,4 4,4 v 6 h 6 l 4,4 4,-4 h 6 v -6 l 4,-4 -4,-4 V 6 h -6 z"
       id="path4" />
    <circle
       style="opacity:0.2"
       cx="31"
       cy="17"
       r="8"
       id="circle4" />
    <circle
       style="fill:#ffcc42"
       cx="31"
       cy="16"
       r="8"
       id="circle5" />
    <path
       style="opacity:0.2;fill:#ffffff"
       d="m 31,2 -4,4 h -6 v 1 h 6 l 4,-4 4,4 h 6 V 6 H 35 Z M 21,12 17,16 17.5,16.5 21,13 Z m 20,0 v 1 L 44.5,16.5 45,16 Z"
       id="path5" />
    <path
       style="opacity:0.2;fill:#ffffff"
       d="m 31,8 a 8,8 0 0 0 -8,8 8,8 0 0 0 0.02148,0.576172 A 8,8 0 0 1 31,9 8,8 0 0 1 38.978516,16.423828 8,8 0 0 0 39,16 8,8 0 0 0 31,8 Z"
       id="path6" />
    <circle
       style="opacity:0.2"
       cx="23"
       cy="33"
       r="8"
       id="circle6" />
    <path
       style="opacity:0.2"
       d="m 23,25 a 8,8 0 0 0 -8,8 8,8 0 0 0 0.01172,0.355469 A 6,6 0 0 0 13,33 6,6 0 0 0 7,39 6,6 0 0 0 13,45 H 33 A 6,6 0 0 0 39,39 6,6 0 0 0 33,33 6,6 0 0 0 30.982422,33.355469 8,8 0 0 0 31,33 8,8 0 0 0 23,25 Z"
       id="path7" />
    <circle
       style="fill:#ffffff"
       cx="13"
       cy="38"
       r="6"
       id="circle7" />
    <circle
       style="fill:#ffffff"
       cx="23"
       cy="32"
       r="8"
       id="circle8" />
    <circle
       style="fill:#ffffff"
       cx="33"
       cy="38"
       r="6"
       id="circle9" />
    <rect
       style="fill:#ffffff"
       width="20"
       height="8"
       x="13"
       y="36"
       id="rect9" />
    <path
       style="opacity:0.2"
       d="m 11,10 a 6,6 0 0 0 -6,6 4,4 0 0 0 -4,4 4,4 0 0 0 4,4 H 16.5 V 23.96484 A 5,5 0 0 0 17,24 5,5 0 0 0 22,19 5,5 0 0 0 17,14 5,5 0 0 0 16.664062,14.023438 6,6 0 0 0 11,10 Z"
       id="path9" />
    <circle
       style="fill:#ffffff"
       cx="5"
       cy="19"
       r="4"
       id="circle10" />
    <circle
       style="fill:#ffffff"
       cx="11"
       cy="15"
       r="6"
       id="circle11" />
    <circle
       style="fill:#ffffff"
       cx="17"
       cy="18"
       r="5"
       id="circle12" />
    <rect
       style="fill:#ffffff"
       width="11.5"
       height="8"
       x="5"
       y="15"
       id="rect12" />
  </g>
</svg>
