<?xml version="1.0" encoding="UTF-8" standalone="no"?>
<svg
   width="64"
   height="64"
   version="1"
   id="svg4"
   sodipodi:docname="install-prevail.svg"
   inkscape:version="1.3.2 (091e20ef0f, 2023-11-25, custom)"
   xml:space="preserve"
   xmlns:inkscape="http://www.inkscape.org/namespaces/inkscape"
   xmlns:sodipodi="http://sodipodi.sourceforge.net/DTD/sodipodi-0.dtd"
   xmlns="http://www.w3.org/2000/svg"
   xmlns:svg="http://www.w3.org/2000/svg"><defs
     id="defs4"><filter
       inkscape:collect="always"
       style="color-interpolation-filters:sRGB"
       id="filter10"
       x="-0.00036704159"
       y="-0.00072080996"
       width="1.0007341"
       height="1.0014416"><feGaussianBlur
         inkscape:collect="always"
         stdDeviation="0.0075524844"
         id="feGaussianBlur10" /></filter><filter
       inkscape:collect="always"
       style="color-interpolation-filters:sRGB"
       id="filter11"
       x="-0.026256343"
       y="-0.051061852"
       width="1.0525127"
       height="1.1021237"><feGaussianBlur
         inkscape:collect="always"
         stdDeviation="0.545667"
         id="feGaussianBlur11" /></filter><filter
       inkscape:collect="always"
       style="color-interpolation-filters:sRGB"
       id="filter13"
       x="-0.023807971"
       y="-0.043287371"
       width="1.0476159"
       height="1.0865747"><feGaussianBlur
         inkscape:collect="always"
         stdDeviation="0.5325334"
         id="feGaussianBlur13" /></filter><filter
       inkscape:collect="always"
       style="color-interpolation-filters:sRGB"
       id="filter2"
       x="-0.058079999"
       y="-0.058079999"
       width="1.11616"
       height="1.11616"><feGaussianBlur
         inkscape:collect="always"
         stdDeviation="0.42183841"
         id="feGaussianBlur2" /></filter><filter
       inkscape:collect="always"
       style="color-interpolation-filters:sRGB"
       id="filter9"
       x="-0.017280001"
       y="-0.017279999"
       width="1.03456"
       height="1.03456"><feGaussianBlur
         inkscape:collect="always"
         stdDeviation="0.43731565"
         id="feGaussianBlur9" /></filter></defs><sodipodi:namedview
     id="namedview4"
     pagecolor="#4d4d4d"
     bordercolor="#000000"
     borderopacity="0.25"
     inkscape:showpageshadow="2"
     inkscape:pageopacity="0.0"
     inkscape:pagecheckerboard="false"
     inkscape:deskcolor="#4d4d4d"
     inkscape:zoom="0.9983453"
     inkscape:cx="31.552209"
     inkscape:cy="31.552209"
     inkscape:window-width="1920"
     inkscape:window-height="1011"
     inkscape:window-x="0"
     inkscape:window-y="0"
     inkscape:window-maximized="1"
     inkscape:current-layer="svg4"
     showborder="true"
     showguides="false"><sodipodi:guide
       position="16,82.91511"
       orientation="-1,0"
       id="guide4"
       inkscape:locked="false"
       inkscape:label=""
       inkscape:color="rgb(0,134,229)" /><sodipodi:guide
       position="48,90.162951"
       orientation="-1,0"
       id="guide5"
       inkscape:locked="false"
       inkscape:label=""
       inkscape:color="rgb(0,134,229)" /><sodipodi:guide
       position="32,76.197592"
       orientation="-1,0"
       id="guide6"
       inkscape:locked="false"
       inkscape:label=""
       inkscape:color="rgb(0,134,229)" /><sodipodi:guide
       position="48.696411,32.340698"
       orientation="0,-1"
       id="guide1"
       inkscape:locked="false" /><sodipodi:guide
       position="24,48.125"
       orientation="-1,0"
       id="guide2"
       inkscape:locked="false"
       inkscape:label=""
       inkscape:color="rgb(0,134,229)" /><sodipodi:guide
       position="40,71.25"
       orientation="-1,0"
       id="guide3"
       inkscape:locked="false"
       inkscape:label=""
       inkscape:color="rgb(0,134,229)" /><sodipodi:guide
       position="29.338379,40.126953"
       orientation="0,-1"
       id="guide7"
       inkscape:locked="false" /><sodipodi:guide
       position="30.75,15"
       orientation="0,-1"
       id="guide8"
       inkscape:locked="false" /></sodipodi:namedview><circle
     style="opacity:0.35;fill:#000000;fill-opacity:1;stroke-width:0.581044;filter:url(#filter2)"
     cx="32"
     cy="54.147972"
     r="8.7156696"
     id="circle2"
     transform="matrix(3.0529508,0,0,3.0529508,-65.694426,-131.96464)" /><path
     style="color:#000000;opacity:0.65;mix-blend-mode:normal;fill:#000000;-inkscape-stroke:none;filter:url(#filter9)"
     d="m 32,2.1724508 c -16.756606,0 -30.3691406,13.6125412 -30.3691406,30.3691472 0,16.756606 13.6125346,30.369141 30.3691406,30.369141 16.756606,0 30.369141,-13.612535 30.369141,-30.369141 C 62.369141,15.784992 48.756606,2.1724508 32,2.1724508 Z"
     id="path9"
     sodipodi:nodetypes="sssss"
     transform="matrix(0.9439778,0,0,0.9439778,1.7927105,1.8474223)" /><path
     style="color:#000000;fill:#005500;stroke-width:0.943978;-inkscape-stroke:none"
     d="M 59.367673,32.05471 A 27.367675,27.367675 0 0 1 31.999998,59.422385 27.367675,27.367675 0 0 1 4.632323,32.05471 27.367675,27.367675 0 0 1 31.999998,4.6870348 27.367675,27.367675 0 0 1 59.367673,32.05471 Z"
     id="path6" /><path
     style="color:#000000;fill:#008000;stroke-width:0.943978;-inkscape-stroke:none"
     d="m 32,3.3869174 c -15.817864,0 -28.6677944,12.8499306 -28.6677944,28.6677946 0,15.817864 12.8499304,28.667795 28.6677944,28.667795 15.817864,0 28.667795,-12.849931 28.667795,-28.667795 C 60.667795,16.236848 47.817864,3.3869174 32,3.3869174 Z m 0,2.60147 c 14.411605,1e-7 26.066324,11.6547196 26.066324,26.0663246 C 58.066324,46.466317 46.411605,58.121036 32,58.121036 17.588395,58.121036 5.9336757,46.466317 5.9336756,32.054712 5.9336757,17.643107 17.588395,5.9883874 32,5.9883874 Z"
     id="path7" /><path
     style="fill:#008000;stroke-width:1.52334"
     d="M 46.947457,8.2821381 C 39.553882,24.381902 39.555133,31.734837 39.562772,48.106386 L 46.938363,46.981091 31.60176,59.975424 16.985001,47.264028 l 7.46024,0.845973 c 0.0066,-16.382097 0.0076,-23.723756 -7.473242,-39.5449261 4.614385,-2.7731875 9.752744,-3.7766351 15.028565,-4.5419129 5.877709,0.5370767 10.662908,1.8972532 14.946893,4.2589761 z"
     id="path4"
     sodipodi:nodetypes="ccccccccc" /><g
     id="g2"
     transform="matrix(0.97481032,0,0,0.97481032,0.80606965,0.80606973)"><path
       id="path8"
       style="color:#000000;opacity:0.35;fill:#000000;stroke-width:0.59014;stroke-linecap:round;stroke-linejoin:round;-inkscape-stroke:none;paint-order:stroke fill markers;filter:url(#filter13)"
       d="m 33.188252,17.237345 c -1.062412,0.0035 -2.128916,0.342641 -2.894888,1.060141 -0.765972,0.7175 -1.147541,1.764522 -1.061993,2.74129 0.05095,0.581706 0.305819,1.096508 0.644475,1.564123 -3.331273,0.830343 -7.821933,0.886221 -9.277025,0.15503 -0.168133,-0.352372 -0.345816,-0.717011 -0.64663,-1.097843 -3.807051,-4.890072 -9.9583145,-0.04321 -14.2675313,7.000258 -0.017367,0.02851 -0.034224,0.05763 -0.050255,0.08686 -1.183044,2.176726 9.394e-4,4.892803 1.7844823,5.812236 0.2863123,2.686197 0.2610093,4.930529 0.3811337,8.548396 0.021094,1.102489 0.5869642,2.174444 1.3694292,2.797389 0.7830606,0.623425 1.6992451,0.880165 2.6105771,0.855955 0.911334,-0.02432 1.899998,-0.351533 2.646657,-1.145496 0.746659,-0.793962 1.05598,-2.01818 0.880987,-3.09839 -0.275224,-2.319703 -0.44976,-3.458681 -0.687645,-4.887814 0.638065,-0.425843 1.276225,-0.966087 1.899809,-1.597001 0.18069,0.02849 0.351833,0.0638 0.544257,0.06363 -0.244792,0.993765 -0.04886,2.065446 0.493068,2.799801 0.406086,0.550269 0.975412,0.897577 1.604707,1.136448 l -0.104854,0.542589 c -0.240548,1.096416 0.159199,2.330684 0.857858,3.058276 0.698651,0.727594 1.562248,1.071518 2.44499,1.169625 0.882741,0.0981 1.853755,-0.06018 2.717888,-0.646339 0.864132,-0.586162 1.492351,-1.643017 1.621052,-2.73918 0.0028,-0.02208 0.0052,-0.04397 0.0072,-0.06603 l 0.165603,-1.916402 c 0.547313,-0.04566 1.127284,-0.147311 1.93342,-0.232532 0.987845,-0.104423 1.210468,-0.01291 1.889323,0.01138 l 0.248232,2.757576 c 0.0042,0.0473 0.01,0.09453 0.01737,0.141455 0.275222,1.74508 2.016778,3.249889 3.890276,2.996751 1.873498,-0.253137 3.10452,-2.013459 3.329984,-3.920263 l -0.02457,0.15622 c 0.09436,-0.48731 0.219977,-1.121846 0.327479,-1.672402 1.225054,-0.124282 2.469109,-1.040867 3.004663,-2.261437 0.288967,0.592684 0.68428,1.166735 1.323791,1.680243 0.706561,0.56735 1.787394,0.918644 2.783262,0.823987 0.227496,-0.02159 0.428425,-0.11125 0.643242,-0.164064 0.650036,0.936369 1.193496,1.787516 2.137555,2.930699 0.733188,0.887841 1.49061,1.740515 2.251647,2.445113 0.380517,0.352301 0.757026,0.66914 1.197976,0.95096 0.440955,0.281824 0.928742,0.60591 1.860036,0.627942 0.0272,8.24e-4 0.05452,0.0014 0.08173,0.0012 1.098769,-0.01339 1.710239,-0.450184 2.222662,-0.825189 0.512424,-0.375008 0.921483,-0.787252 1.286479,-1.204009 0.365001,-0.416759 0.674209,-0.831904 0.928782,-1.238995 0.520613,-0.832562 0.771744,-1.938769 0.563068,-2.904458 -0.126069,-0.486071 -0.230696,-0.640574 -0.27506,-0.760348 -0.311331,-0.840464 -0.347409,-1.742568 -0.265806,-2.657443 0.16235,-0.977183 0.09214,-1.992752 -0.445272,-2.817899 -0.630179,-0.967578 -1.681286,-1.489341 -2.650051,-1.596998 -0.968764,-0.10765 -1.946547,0.117358 -2.778636,0.764869 -0.323557,0.251791 -0.556877,0.63499 -0.777374,1.017919 0.108753,-0.56576 0.203918,-1.077533 0.364788,-1.847635 0.484531,-2.319697 1.126291,-5.373974 1.487224,-8.419609 0.138256,-1.144784 -0.364583,-2.352679 -1.119959,-3.048049 -0.755374,-0.695374 -1.642076,-1.001136 -2.523314,-1.080653 -0.881232,-0.07951 -1.817169,0.06095 -2.693222,0.624623 -0.426946,0.274714 -0.806163,0.690723 -1.094369,1.171737 -0.88617,-0.230075 -1.741183,6.51e-4 -2.540891,0.482268 -0.333342,-0.241988 -0.691256,-0.446661 -1.102393,-0.507264 -0.294038,-1.084426 -1.010506,-2.076932 -2.052449,-2.817916 -1.6088,-1.144109 -3.924029,-1.805408 -7.105549,-1.805408 -0.0023,-6e-6 -0.0047,-6e-6 -0.0072,0 z m 0.0074,2.188747 c 5.7103,0 7.375875,2.443895 7.058679,3.760414 -0.08947,0.371372 -0.344438,1.518282 -0.344438,1.518282 0,0 0.07772,-0.481046 0.517428,-0.776333 0.304562,-0.248042 2.577751,-0.252318 2.642649,1.747501 0.633614,6.296647 0.495646,5.472429 1.438809,9.104556 0.4163,-1.044028 0.313537,-1.525715 -0.35554,-5.437037 -0.312234,-2.034489 3.151346,-1.723603 2.527322,0.02926 -0.40308,0.729702 -0.352696,0.733802 -0.02208,0.333875 -0.171955,1.906034 -0.489561,3.750876 0.494922,5.472628 0.805952,-4.141026 0.841983,-4.849318 0.549803,-11.531876 0.08422,-2.056935 3.748734,-1.723883 3.502669,0.313668 -0.690609,5.833676 -2.51166,11.996861 -2.059231,12.413771 1.441596,1.386164 3.774578,4.000648 4.492503,4.145263 0.314285,0.0631 0.550004,0.437074 0.633988,0.521475 0.01215,0.01564 -0.781169,-1.248932 -1.000013,-4.741535 -0.151779,-2.000983 3.516613,-2.044053 2.748108,0.756124 -0.377749,1.108123 0.01191,0.329964 0.01138,0.36253 -0.04339,3.662066 0.81155,3.191964 0.544872,4.249013 0.01713,0.442512 -1.740064,2.83807 -2.838149,2.851378 -1.513863,-0.03581 -5.902149,-6.037182 -6.738906,-7.472875 -2.520413,1.731997 -3.52509,-0.03037 -4.015473,-2.268673 -1.67e-4,0.0038 -0.220174,-0.922913 -0.220174,-0.922913 -1.464651,-0.04449 -2.545477,0.785282 -2.724674,0.991979 -0.239356,0.740002 -0.282215,0.830028 -0.506018,1.574984 -0.422678,1.656494 -2.216341,1.271886 -2.73423,0.220472 -0.307656,1.545427 -0.600215,3.04489 -0.842443,4.296062 -0.309002,2.613312 -2.531781,2.449117 -2.785419,0.840877 l -0.890543,-9.880591 -0.834732,4.277969 c -0.177663,1.420532 -0.164634,0.562339 -2.882244,0.849622 -3.270548,0.345735 -3.491586,0.342088 -3.377782,-0.845399 0.170591,-1.662302 0.558002,-8.880242 1.493389,-10.237387 1.669544,-0.605695 3.705094,-1.207294 4.764786,-1.543918 1.052448,-0.334323 -0.337507,0.04018 -0.18811,-0.0597 3.41708,-2.284793 4.789574,1.352784 3.105499,2.029801 l 0.533157,9.730389 c 0,0 1.490217,-7.012993 3.018231,-12.752776 0.175132,-0.632498 -0.127258,0.403361 -0.238363,-0.02594 -0.511097,-0.84122 -1.978145,-1.240625 -4.228854,-1.169323 -2.485289,0.161581 -2.725476,-2.717598 -0.250699,-2.725608 z m -17.174114,2.525342 c 2.079663,0.04169 2.710546,1.861753 2.912772,2.666189 1.367118,0.325484 1.861466,0.624466 5.914351,0.649055 2.436336,-0.01688 0.748347,2.643802 0.122123,3.482333 l -1.80884,1.10267 c 0.590129,-0.24633 2.568521,-1.185032 2.422785,-0.364039 0,0 -0.07524,0.553803 -0.303427,2.331409 l 8.95e-4,3.03e-4 -0.806364,9.347953 c -0.266576,2.270468 -3.626468,1.671015 -3.23069,-0.133017 l 1.845537,-9.531935 -1.287097,0.378215 -0.08974,4.147373 c 0.03708,3.289677 -3.057853,2.16079 -2.506355,0.504888 0.445004,-1.126549 0.703299,-3.170252 0.74315,-4.26862 -0.356457,0.111969 -0.812831,0.313482 -1.470572,0.713295 -0.895781,0.602664 -0.48436,0.480995 -0.09959,0.271145 0.183966,-0.08936 -0.622636,0.512839 -0.932483,0.610448 -0.560871,0.191238 -1.211848,-0.08058 -1.45546,-0.438533 -1.360657,1.659963 -2.82328,2.752805 -3.789443,3.12071 -1.593636,0.606363 0.0059,0.03122 0.02653,0.14205 0.391456,2.109645 0.505844,3.122336 0.868343,6.176875 0.367162,2.266441 -3.024627,2.232193 -3.062018,0.205706 -0.1504226,-4.478159 0.127176,-6.796403 -0.6213069,-11.003464 -0.4742963,0.659476 -3.1250887,0.142622 -1.8039077,-2.288277 1.5372923,-2.544623 3.3640176,-5.483298 6.8610186,-7.188159 0.167092,-0.05899 1.575001,-0.62712 -0.03638,-0.08023 -0.407326,0.149916 0.72531,-0.504119 1.334276,-0.551936 0.08609,-0.0032 0.169946,-0.0039 0.25193,-0.0024 z m 29.442252,1.993608 c -0.73934,0.370208 0.288014,0.02871 0.425846,0.0748 1.790247,0.556814 0.57196,3.552605 -0.926007,3.027511 -0.797804,-0.2683 -1.237094,-1.162626 -0.981512,-1.998133 0.205384,-0.6713 0.808584,-1.120797 1.481673,-1.104178 z m -5.554188,0.759746 c -1.488806,4.129868 -2.656833,9.690575 -2.656833,9.690575 2.108686,-4.107812 2.614878,-8.791005 2.656833,-9.690575 z m -23.895156,0.83997 c -1.392404,-0.150686 -4.57815,2.979141 -5.064819,4.321399 -0.0139,0.03844 0.358177,1.196781 0.860017,4.895053 1.803245,-1.180237 5.302757,-5.149214 4.827073,-8.525776 -0.0751,-0.44647 -0.300948,-0.655902 -0.622271,-0.690676 z m 2.978453,1.423578 c -0.119169,1.456497 -0.515738,2.415218 -0.986137,3.316751 -0.177093,0.406979 -0.414326,0.841948 -0.686718,1.284236 0.900044,-0.301835 1.724152,-0.558937 2.478293,-0.78719 -0.05582,-1.140847 -0.01812,-1.449614 -0.266732,-3.510685 -0.0044,-0.03821 1.056192,0.199774 -0.0077,-0.137832 z m 12.416442,0.24822 c -0.05495,0.007 -0.126864,0.02307 -0.222954,0.04435 -1.214654,0.208014 -4.819183,1.528408 -2.741321,0.940707 -0.0652,0.38573 -0.06596,0.263488 -0.09128,0.437026 -0.03835,0.262712 0.09327,0.238885 0.318845,0.199973 1.902261,-0.328165 1.967464,2.23775 0.304352,2.606471 l -0.919222,0.218958 c -0.219777,0.0576 -0.223425,0.05443 -0.217097,0.0775 -0.201859,1.297329 -0.363567,2.189915 -0.456063,2.709318 -0.06408,0.446197 -0.05641,0.499752 0.404259,0.478949 0.967312,-0.01737 1.526175,-0.03817 1.837518,-0.03377 1.23572,0.01737 0.161607,-0.04469 0.162822,-0.130909 l 0.148007,-2.544638 c 0.114651,-1.835557 1.857841,-1.482213 2.247022,-0.897276 l -0.558133,-3.808371 c -0.04144,-0.257699 -0.05196,-0.319256 -0.216773,-0.298287 z m -10.146601,0.441249 0.167736,2.052724 1.509732,-1.454943 c 0.06151,-0.07346 1.106624,0.146369 0.121181,-0.129692 z M 41.97346,28.6344 c -0.422487,1.350612 -0.826639,2.707125 -1.286789,4.046035 0,0 0.920545,-0.72614 1.651269,-0.795333 z m -23.789391,7.291911 -0.04995,0.01588 c 0.01564,-0.005 0.0072,-0.0067 0.02209,-0.01138 0.0096,-0.0032 0.01812,-0.0013 0.02774,-0.0044 z"
       transform="matrix(1.1379998,0,0,1.1379998,-4.415994,-4.4159933)" /><path
       style="color:#000000;fill:#333333;stroke-linecap:round;stroke-linejoin:bevel;-inkscape-stroke:none;filter:url(#filter10)"
       d="m 33.195292,18.421861 c -2.474774,0.008 -2.233333,2.88619 0.251954,2.724609 2.250706,-0.0713 3.717419,0.328703 4.228515,1.169922 0.111105,0.429301 0.413413,-0.607106 0.238281,0.02539 -1.528012,5.739777 -3.019531,12.753906 -3.019531,12.753906 l -0.533203,-9.730469 c 1.684073,-0.677016 0.311608,-4.31604 -3.105469,-2.03125 -0.149396,0.09988 1.2419,-0.273775 0.189453,0.06055 -1.05969,0.336624 -3.096082,0.937275 -4.765624,1.542969 -0.935387,1.357143 -1.321597,8.57598 -1.492188,10.238281 -0.113804,1.187486 0.106408,1.191438 3.376953,0.845703 2.717607,-0.287282 2.70515,0.570922 2.882813,-0.849609 l 0.833984,-4.277344 0.890625,9.878907 c 0.253638,1.608238 2.476155,1.773464 2.785156,-0.839844 0.242228,-1.251172 0.536095,-2.75145 0.84375,-4.296875 0.517889,1.051413 2.309745,1.435789 2.732422,-0.220703 0.223803,-0.744956 0.268457,-0.834218 0.507813,-1.574219 0.179196,-0.206697 1.259959,-1.036677 2.724609,-0.992187 0,0 0.218583,0.927628 0.21875,0.923828 0.490383,2.238301 1.495215,3.999573 4.015625,2.267578 0.836756,1.435691 5.226373,7.436836 6.740234,7.472656 1.098084,-0.01331 2.855021,-2.409051 2.837891,-2.851562 0.266678,-1.057048 -0.588312,-0.585985 -0.544922,-4.248047 5.3e-4,-0.03257 -0.389467,0.74484 -0.01172,-0.363282 0.768505,-2.800174 -2.899825,-2.75684 -2.748046,-0.755859 0.218843,3.4926 1.012149,4.757827 1,4.742188 -0.08398,-0.0844 -0.320481,-0.458375 -0.634766,-0.521485 -0.717924,-0.144614 -3.050593,-2.760322 -4.492188,-4.146484 -0.452428,-0.41691 1.367986,-6.578439 2.058594,-12.41211 0.246065,-2.037549 -3.417733,-2.371386 -3.501953,-0.314453 0.29218,6.682551 0.257123,7.390228 -0.548828,11.53125 -0.984482,-1.72175 -0.668049,-3.566624 -0.496094,-5.472656 -0.330616,0.399927 -0.381595,0.395716 0.02148,-0.333984 0.624023,-1.752862 -2.839578,-2.063784 -2.527344,-0.0293 0.669076,3.911318 0.773721,4.393473 0.357422,5.4375 -0.943162,-3.632124 -0.80584,-2.806876 -1.439454,-9.103516 -0.0649,-1.999817 -2.338016,-1.996089 -2.642578,-1.748047 -0.439707,0.295286 -0.517578,0.775391 -0.517578,0.775391 -0.04196,0.899569 -0.549519,5.583598 -2.658203,9.691406 0,0 1.169399,-5.561541 2.658203,-9.691406 0,0 0.25428,-1.146207 0.34375,-1.517578 0.317196,-1.316519 -1.348299,-3.759766 -7.058594,-3.759766 z m -17.173828,2.525391 c -0.08198,-0.0015 -0.165863,-0.0012 -0.251953,0.002 -0.608965,0.04782 -1.74131,0.700697 -1.333984,0.550781 1.611379,-0.546889 0.204201,0.02304 0.03711,0.08203 -3.496997,1.704859 -5.3240373,4.64288 -6.8613281,7.1875 -1.3211797,2.430896 1.3284386,2.948538 1.8027344,2.289063 0.7484817,4.207057 0.4706715,6.523798 0.6210937,11.001953 0.03739,2.026485 3.429662,2.061362 3.0625,-0.205078 -0.362498,-3.054535 -0.475732,-4.068092 -0.867187,-6.177735 -0.02063,-0.110829 -1.620978,0.465738 -0.02734,-0.140624 0.966162,-0.367905 2.428407,-1.461132 3.789063,-3.121094 0.243611,0.357953 0.894207,0.628738 1.455078,0.4375 0.309846,-0.09761 1.117559,-0.698735 0.933593,-0.609375 -0.384769,0.20985 -0.79617,0.331179 0.09961,-0.271485 0.65774,-0.399812 1.114246,-0.600921 1.470703,-0.71289 -0.03985,1.098368 -0.299137,3.14103 -0.744141,4.267578 -0.551497,1.6559 2.54294,2.785767 2.50586,-0.503906 l 0.08984,-4.148438 1.28711,-0.376953 -1.84375,9.53125 c -0.395778,1.80403 2.963893,2.403277 3.230468,0.132813 l 0.804686,-9.347703 c 0.228187,-1.777605 0.302734,-2.332031 0.302734,-2.332031 0.145736,-0.820992 -1.831746,0.118905 -2.421875,0.365234 l 1.808594,-1.103515 c 0.626223,-0.838529 2.31524,-3.499302 -0.121094,-3.482422 -4.052881,-0.02459 -4.548899,-0.322953 -5.916015,-0.648438 -0.202226,-0.804435 -0.832449,-2.624325 -2.91211,-2.666015 z m 29.441407,1.992187 c -0.673089,-0.01662 -1.275085,0.43417 -1.480469,1.105469 -0.255582,0.835506 0.182665,1.729747 0.980469,1.998047 1.497965,0.525093 2.717979,-2.470529 0.927734,-3.027344 -0.137832,-0.04609 -1.167074,0.294036 -0.427734,-0.07617 z m -29.449219,1.59961 c 0.321323,0.03477 0.547947,0.244936 0.623047,0.691406 0.475683,3.376558 -3.022929,7.345155 -4.826172,8.525391 -0.50184,-3.698269 -0.875228,-4.856092 -0.861328,-4.894532 0.486668,-1.342255 3.67205,-4.472951 5.064453,-4.322265 z m 2.978516,1.423828 0.53125,0.166015 c 1.06389,0.337606 0.0034,0.100462 0.0078,0.138672 0.248612,2.061069 0.211758,2.36892 0.267578,3.509766 -0.75414,0.228253 -1.578472,0.485275 -2.478516,0.787109 0.272392,-0.442287 0.508455,-0.876224 0.685547,-1.283203 0.470399,-0.901532 0.86716,-1.861863 0.986329,-3.318359 z m 12.417968,0.248047 c 0.164813,-0.02097 0.175357,0.04113 0.216797,0.298828 l 0.556641,3.808594 C 31.794393,29.733409 30.052131,29.379275 29.93748,31.21483 l -0.148438,2.544922 c -0.0012,0.08622 1.07361,0.148229 -0.162109,0.130859 -0.311343,-0.0044 -0.870579,0.01779 -1.837891,0.03516 -0.460668,0.0208 -0.468376,-0.03427 -0.404296,-0.480468 0.0925,-0.519403 0.253219,-1.411656 0.455078,-2.708985 -0.0063,-0.02307 -0.001,-0.01857 0.21875,-0.07617 l 0.917968,-0.220703 c 1.663111,-0.368721 1.597572,-2.933634 -0.304687,-2.605469 -0.225575,0.03891 -0.356709,0.06349 -0.318359,-0.199218 0.02532,-0.173539 0.0266,-0.05177 0.0918,-0.4375 -2.077859,0.587701 1.525582,-0.733393 2.740235,-0.941406 0.09609,-0.02128 0.169659,-0.03792 0.224609,-0.04492 z m -10.146484,0.441406 1.796875,0.46875 c 0.985442,0.276061 -0.05958,0.05545 -0.121094,0.128906 l -1.509765,1.455078 z m 20.708984,0.976562 0.365235,3.251954 c -0.730724,0.06919 -1.650391,0.794921 -1.650391,0.794921 0.46015,-1.338908 0.86267,-2.696264 1.285156,-4.046875 z"
       id="path10"
       transform="matrix(1.1379998,0,0,1.1379998,-4.415994,-4.4159933)" /><path
       style="color:#000000;opacity:0.75;mix-blend-mode:normal;fill:#000000;stroke-linecap:round;stroke-linejoin:bevel;-inkscape-stroke:none;filter:url(#filter11)"
       d="m 33.195292,18.546861 c -0.667163,0.0022 -1.184774,0.20045 -1.52539,0.519531 -0.340617,0.319082 -0.49431,0.754418 -0.457031,1.177735 0.07456,0.846634 0.910936,1.614403 2.25,1.527343 1.104497,-0.03435 2.010136,0.04873 2.683593,0.234375 0.675404,0.18618 1.106832,0.469512 1.316407,0.814454 l -0.0293,-0.06641 c 0.02039,0.07878 0.03949,0.160133 0.140625,0.236328 0.0041,0.0031 0.01115,0.0029 0.01563,0.0059 -1.284391,4.886923 -2.22873,9.296087 -2.539063,10.734375 l -0.4375,-7.964844 c 0.346794,-0.232383 0.64831,-0.529257 0.701172,-0.916016 0.0648,-0.474115 -0.07488,-0.983382 -0.396484,-1.390625 -0.321608,-0.407242 -0.835417,-0.708196 -1.486328,-0.742187 -0.650912,-0.03399 -1.428266,0.192617 -2.314454,0.785156 -0.01581,0.01057 -0.03496,0.01917 -0.06641,0.05859 -0.0079,0.0099 -0.02512,0.03856 -0.02539,0.03906 -2.14e-4,3.93e-4 -0.01112,0.03184 -0.01758,0.04883 -1.104681,0.3453 -2.860273,0.865987 -4.414062,1.429687 l -0.119141,0.0918 c -0.09035,0.131092 -0.128589,0.453029 -0.201172,0.638672 0.03731,-0.311819 0.09159,-0.633689 -0.08203,-0.892578 -0.234,-0.348931 -0.689365,-0.533831 -1.34375,-0.529297 -3.920798,-0.02406 -4.447759,-0.298968 -5.746094,-0.617188 -0.115114,-0.422513 -0.290842,-1.005377 -0.724609,-1.554687 -0.477959,-0.605273 -1.237406,-1.120282 -2.349609,-1.142578 h -0.002 c -0.08562,-0.0016 -0.174001,-0.0015 -0.265625,0.002 h -0.0097 c -0.380949,0.02991 -0.815752,0.217403 -1.138672,0.375 -0.16146,0.0788 -0.28467,0.145951 -0.36914,0.205078 -0.02112,0.01478 -0.03682,0.02581 -0.06641,0.05664 -0.0074,0.0077 -0.01714,0.01711 -0.02734,0.03125 -0.0051,0.0071 -0.0097,0.01472 -0.01563,0.02539 -0.006,0.01067 -0.01935,0.0405 -0.01953,0.04102 -1.83e-4,5.2e-4 -0.01364,0.06596 -0.01367,0.06641 -8e-6,1.13e-4 0.0029,0.01447 0.0039,0.02344 -3.380388,1.757486 -5.2105298,4.640083 -6.7070318,7.117187 l -0.00391,0.0098 c -0.348814,0.641798 -0.4523835,1.188792 -0.3691406,1.640625 0.083243,0.451832 0.3574817,0.788564 0.6835937,0.99414 0.3261121,0.205577 0.7018688,0.292411 1.0449219,0.285157 0.1758352,-0.0037 0.2911671,-0.127075 0.4433594,-0.1875 0.6729807,3.976482 0.4432733,6.310991 0.5898438,10.68164 0.010634,0.576321 0.2708706,1.039585 0.6406246,1.333985 0.369755,0.294399 0.839903,0.432023 1.298828,0.419921 0.458926,-0.0121 0.915007,-0.176028 1.236329,-0.517578 0.321321,-0.34155 0.484304,-0.857878 0.382812,-1.484375 -0.359718,-3.031289 -0.47499,-4.064488 -0.863281,-6.160156 0.987746,-0.428287 2.284568,-1.429328 3.548828,-2.925781 0.149759,0.131726 0.286883,0.278598 0.492187,0.347656 0.306818,0.103204 0.66202,0.127719 1.003907,0.01172 6.65e-4,-2.26e-4 0.0013,2.27e-4 0.002,0 0.234415,-0.07523 0.490552,-0.25033 0.714843,-0.40625 0.112973,-0.07854 0.208212,-0.149085 0.273438,-0.203125 0.01631,-0.01351 0.0304,-0.02539 0.04492,-0.03906 0.01452,-0.01367 0.02551,-0.01892 0.05664,-0.06836 0.0078,-0.01236 0.02906,-0.05785 0.0293,-0.05859 1.19e-4,-3.7e-4 0.0117,-0.06415 0.01172,-0.06445 1.3e-5,-2.43e-4 -0.0077,-0.05628 -0.01172,-0.08203 0.438621,-0.263949 0.701952,-0.362202 0.978516,-0.47461 -0.07746,1.123286 -0.27553,2.793212 -0.650391,3.742188 l -0.0039,0.01367 c -0.162714,0.488559 -0.05536,0.963446 0.199219,1.308594 0.254574,0.345147 0.647221,0.573803 1.070312,0.621093 0.423091,0.04729 0.883356,-0.103842 1.210938,-0.496093 0.320663,-0.383967 0.501125,-0.989449 0.5,-1.822266 l -0.949219,4.916016 c -0.11543,0.52615 0.05056,1.00049 0.363281,1.326171 0.312724,0.325682 0.757323,0.518839 1.220703,0.570313 0.463381,0.05147 0.953352,-0.03837 1.357422,-0.3125 0.40407,-0.274128 0.707366,-0.739858 0.78125,-1.369141 l 0.002,-0.0078 0.357422,-4.150391 c 0.107078,0.169275 0.244109,0.330675 0.464844,0.382813 0.549269,0.129738 1.405063,0.02645 3.041016,-0.146485 1.332961,-0.140909 1.943034,6.83e-4 2.367187,0.002 0.106039,3.18e-4 0.210611,-0.0069 0.316406,-0.05273 0.105796,-0.04581 0.198725,-0.136908 0.251954,-0.236328 0.106457,-0.198839 0.125166,-0.421446 0.169921,-0.779297 l 0.496094,-2.537109 0.732422,8.128906 0.002,0.01758 c 0.144119,0.913813 0.887911,1.473813 1.650391,1.371094 0.762479,-0.102719 1.466126,-0.844029 1.628906,-2.220703 l -0.002,0.01758 c 0.215169,-1.111405 0.479848,-2.454749 0.75,-3.816406 0.339223,0.349136 0.761199,0.609623 1.240234,0.626953 0.664967,0.02406 1.348623,-0.397761 1.582032,-1.3125 0.209375,-0.696264 0.268454,-0.838629 0.480468,-1.490235 0.05139,-0.05347 0.340047,-0.304193 0.773438,-0.511718 0.40079,-0.191915 0.952064,-0.319729 1.546875,-0.337891 0.0205,0.08693 0.02734,0.116662 0.05469,0.232422 0.02734,0.11576 0.05561,0.229797 0.07617,0.316406 0.01028,0.0433 0.01931,0.08011 0.02539,0.105469 0.003,0.01268 0.0041,0.02197 0.0059,0.0293 3.71e-4,0.0015 0.0016,0.0026 0.002,0.0039 4.62e-4,0.0019 0.0015,0.004 0.002,0.0059 1.4e-4,6.38e-4 -1.39e-4,0.0013 0,0.002 3.15e-4,0.0012 0.0011,0.0028 0.002,0.0059 5.53e-4,0.002 0.0039,0.01359 0.0039,0.01367 1.4e-5,4.1e-5 0.0078,0.01953 0.0078,0.01953 0.249711,1.121008 0.613204,2.152872 1.31836,2.71875 0.357871,0.287187 0.812851,0.437759 1.328125,0.388672 0.447624,-0.04264 0.960826,-0.297026 1.509765,-0.638672 0.486558,0.804686 1.669252,2.49395 3.011719,4.119141 0.699908,0.847308 1.42084,1.65288 2.072266,2.255859 0.325713,0.30149 0.633942,0.551629 0.919922,0.734375 0.285979,0.182746 0.548038,0.306104 0.818359,0.3125 h 0.0098 c 0.364599,-0.0044 0.712218,-0.188265 1.052734,-0.4375 0.340516,-0.249235 0.672744,-0.57407 0.96875,-0.912109 0.296006,-0.33804 0.554118,-0.687477 0.742187,-0.988282 0.09403,-0.150402 0.171139,-0.288941 0.226563,-0.412109 0.05156,-0.114573 0.08677,-0.209334 0.08789,-0.335938 0.06016,-0.265369 0.06806,-0.48686 0.01953,-0.673828 -0.05177,-0.199437 -0.13626,-0.353611 -0.21875,-0.576172 -0.164981,-0.44512 -0.36131,-1.198061 -0.339844,-3.009765 4e-6,-2.55e-4 -0.0097,-0.07016 -0.0098,-0.07031 -2.1e-5,-7.8e-5 -0.02731,-0.0644 -0.02734,-0.06445 -1.2e-5,-1.9e-5 -0.01358,-0.01478 -0.02539,-0.02734 0.01772,-0.05506 0.01333,-0.05524 0.03711,-0.125 l 0.0039,-0.01367 c 0.205517,-0.748836 0.120699,-1.354992 -0.158203,-1.783204 -0.278903,-0.428211 -0.73415,-0.659509 -1.197266,-0.710937 -0.463116,-0.05143 -0.943496,0.06828 -1.3125,0.355469 -0.368548,0.286833 -0.613243,0.758908 -0.570313,1.333984 5.4e-5,7.12e-4 -5.4e-5,0.0012 0,0.002 0.110666,1.760312 0.36778,2.968216 0.597657,3.738281 0.03116,0.104392 0.05225,0.139891 0.08203,0.228516 -0.0069,-0.0016 -0.0086,-0.0083 -0.01563,-0.0098 -0.06215,-0.01252 -0.357082,-0.181945 -0.689453,-0.460937 -0.332371,-0.278992 -0.733946,-0.659716 -1.158203,-1.080078 -0.848515,-0.840724 -1.790665,-1.840176 -2.519532,-2.541016 l -0.0039,-0.0039 c 0.0435,0.04008 0.0246,0.04299 0.01758,0 -0.007,-0.04299 -0.01137,-0.120692 -0.0078,-0.220703 0.0071,-0.200022 0.04347,-0.492931 0.101562,-0.851563 0.116186,-0.717262 0.322026,-1.706385 0.564453,-2.867187 0.484855,-2.321604 1.113827,-5.32767 1.460938,-8.259766 0.07047,-0.583506 -0.149427,-1.080239 -0.509766,-1.412109 -0.360338,-0.331871 -0.84851,-0.513789 -1.34375,-0.558594 -0.49524,-0.04481 -1.004105,0.04876 -1.414062,0.3125 -0.409958,0.263744 -0.708325,0.716149 -0.732422,1.304688 v 0.02148 c 0.254895,5.829797 0.165856,7.283452 -0.371094,10.253906 -0.351215,-1.31788 -0.310253,-2.693041 -0.175781,-4.183594 l -0.109375,-0.04492 c 0.03443,-0.065 0.05431,-0.105865 0.101562,-0.191407 l 0.01758,-0.03711 c 0.181295,-0.509254 0.05893,-0.983031 -0.230469,-1.287109 -0.289394,-0.304078 -0.711566,-0.456214 -1.138672,-0.480469 -0.427106,-0.02425 -0.871651,0.08089 -1.205078,0.363281 -0.333427,0.282387 -0.525927,0.751947 -0.4375,1.328125 l 0.002,0.0059 c 0.334615,1.95611 0.526149,3.053613 0.582031,3.769532 0.01018,0.130456 -0.04104,0.172036 -0.03906,0.279297 -0.49845,-1.948348 -0.613212,-2.639357 -1.128907,-7.765625 -0.03552,-1.094485 -0.717769,-1.70378 -1.398437,-1.945313 -0.340334,-0.120766 -0.679591,-0.162625 -0.964844,-0.158203 -0.142626,0.0022 -0.272625,0.01657 -0.384765,0.04102 -0.06442,0.01404 -0.117429,0.04965 -0.173829,0.07422 0.04285,-0.188548 0.07255,-0.331317 0.09766,-0.435547 0.190185,-0.789363 -0.218742,-1.820149 -1.367188,-2.636718 -1.148445,-0.816569 -3.042793,-1.431641 -5.933594,-1.431641 z m 0,0.5 c 2.81949,0 4.611957,0.605661 5.644532,1.339844 1.032575,0.734183 1.298885,1.584173 1.171875,2.111328 -0.09164,0.380386 -0.345703,1.521484 -0.345703,1.521484 -1.493944,4.154792 -2.658204,9.695313 -2.658204,9.695313 l 0.466797,0.164062 c 0.01093,-0.02129 0.01064,-0.04118 0.02148,-0.0625 2.095507,-4.11935 2.606482,-8.694888 2.65625,-9.683593 2.8e-5,-5.57e-4 0.0019,-0.0034 0.002,-0.0039 0,0 0.0038,-0.01916 0.0039,-0.01953 7.51e-4,-0.0044 0.06332,-0.371911 0.408203,-0.603516 l 0.01953,-0.01367 c -0.02085,0.01698 0.02303,-0.01192 0.09375,-0.02734 0.07072,-0.01542 0.170835,-0.02752 0.285157,-0.0293 0.228642,-0.0035 0.516888,0.03359 0.791015,0.130859 0.548255,0.194547 1.035074,0.582952 1.064453,1.488282 l 0.002,0.01758 c 0.633471,6.295218 0.502983,5.511707 1.445312,9.140625 l 0.474609,0.0293 c 0.215723,-0.541006 0.305729,-0.989913 0.246094,-1.753907 -0.05954,-0.762789 -0.254398,-1.863074 -0.58789,-3.8125 -0.06769,-0.441064 0.05499,-0.696309 0.263671,-0.873047 0.208682,-0.176737 0.533708,-0.264366 0.855469,-0.246093 0.321761,0.01827 0.627968,0.144491 0.802735,0.328125 0.173905,0.182729 0.249129,0.405575 0.121093,0.769531 -0.08999,0.163755 -0.162413,0.298117 -0.208984,0.394531 -0.02524,0.05226 -0.04519,0.09601 -0.06055,0.136719 -0.01536,0.04071 -0.03906,0.05798 -0.0293,0.169922 0.0012,0.01399 0.0044,0.02969 0.0098,0.04883 0.0054,0.01913 0.02687,0.06368 0.02734,0.06445 4.7e-4,7.75e-4 0.06185,0.06786 0.0625,0.06836 6.46e-4,5.05e-4 0.08512,0.04469 0.08594,0.04492 4.73e-4,1.37e-4 0.0249,0.003 0.04492,0.0059 -0.17045,1.717939 -0.374271,3.447628 0.5625,5.085937 l 0.462891,-0.07813 c 0.805427,-4.13833 0.843468,-4.913608 0.552734,-11.568359 0.01801,-0.439927 0.208952,-0.715796 0.501953,-0.904297 0.293001,-0.188501 0.699131,-0.270607 1.099609,-0.234375 0.400479,0.03623 0.788779,0.190183 1.048829,0.429687 0.260049,0.239505 0.40608,0.549108 0.353515,0.984375 -0.343497,2.90157 -0.970182,5.893043 -1.455078,8.214844 -0.242448,1.160901 -0.448882,2.154997 -0.568359,2.892578 -0.05974,0.368791 -0.09889,0.672587 -0.107422,0.91211 -0.0043,0.119761 -0.002,0.222442 0.01367,0.318359 0.01568,0.09592 0.03666,0.194911 0.136718,0.287109 0.71234,0.685235 1.655348,1.684695 2.511719,2.533204 0.428849,0.424911 0.835531,0.811979 1.1875,1.107421 0.35197,0.295443 0.617256,0.50662 0.914063,0.566407 0.07556,0.01517 0.181266,0.08886 0.273437,0.183593 0.08213,0.08441 0.133882,0.160736 0.207031,0.240235 -0.0043,-0.0062 -0.0098,-0.01367 -0.0098,-0.01367 0,0 0.01109,-0.0074 0.01172,-0.0078 0.0219,-0.01163 0.429712,-0.22846 0.429687,-0.228515 -2.5e-5,-5.7e-5 -0.0047,-0.0095 -0.0059,-0.01172 -0.0047,-0.009 -0.0049,-0.0081 -0.0059,-0.0098 -0.0018,-0.0033 -0.0037,-0.0059 -0.0059,-0.0098 -0.0043,-0.0077 -0.01026,-0.01945 -0.01953,-0.03711 -0.01854,-0.03532 -0.04816,-0.09332 -0.08398,-0.173828 -0.07164,-0.16101 -0.172142,-0.415749 -0.28125,-0.78125 -0.218215,-0.731001 -0.467811,-1.901498 -0.576172,-3.630859 v -0.0039 c -0.0322,-0.424446 0.12485,-0.706137 0.376954,-0.902344 0.252103,-0.196207 0.612241,-0.289591 0.951171,-0.251953 0.338931,0.03764 0.645961,0.195694 0.833985,0.484375 0.188023,0.288681 0.274438,0.727656 0.0957,1.378906 -0.09114,0.268242 -0.140533,0.428415 -0.162109,0.537109 -0.0055,0.02786 -0.01,0.05333 -0.01172,0.08398 -0.0018,0.03066 -0.01277,0.0632 0.02734,0.146484 0.01003,0.02082 0.04617,0.06959 0.04687,0.07031 7.08e-4,7.24e-4 0.09094,0.06022 0.0918,0.06055 5.4e-4,2.06e-4 0.03608,0.0049 0.06641,0.0098 0.03564,1.324568 0.157424,2.285319 0.314453,2.708985 0.0925,0.249562 0.170944,0.405324 0.203125,0.529296 0.03218,0.123973 0.03851,0.232894 -0.02148,0.470704 l -0.0078,0.07031 c -0.0012,-0.03157 -0.0091,0.04412 -0.05078,0.136719 -0.04167,0.0926 -0.107933,0.214928 -0.19336,0.351562 -0.170853,0.273269 -0.416965,0.605956 -0.695312,0.923828 -0.278347,0.317873 -0.589509,0.622307 -0.886719,0.839844 -0.295661,0.216405 -0.57722,0.334438 -0.761719,0.337891 -0.109006,-0.0039 -0.310088,-0.07417 -0.554687,-0.230469 -0.247108,-0.157906 -0.537836,-0.393053 -0.84961,-0.681641 -0.623547,-0.577174 -1.336021,-1.370116 -2.027343,-2.207031 -1.382645,-1.67383 -2.69288,-3.542108 -3.091797,-4.226562 l -0.357422,-0.08008 c -0.607412,0.417406 -1.106585,0.608633 -1.503906,0.646484 -0.397322,0.03785 -0.699065,-0.06483 -0.96875,-0.28125 -0.539371,-0.432838 -0.917718,-1.382799 -1.158203,-2.480469 l -0.494141,0.04102 c 0,0 0.486356,-0.06828 0.486328,-0.06836 -2.4e-5,-7.2e-5 0.003,0.0086 0.0039,0.01172 -0.0014,-0.0058 -0.0029,-0.01698 -0.0059,-0.0293 -0.0059,-0.02464 -0.01515,-0.06039 -0.02539,-0.103515 -0.02047,-0.08625 -0.0469,-0.200735 -0.07422,-0.316407 -0.05465,-0.231343 -0.109375,-0.46289 -0.109375,-0.46289 l -0.236329,-0.19336 c -0.781347,-0.02373 -1.457415,0.184675 -1.960937,0.425782 -0.503522,0.241107 -0.816878,0.486176 -0.960938,0.652343 l -0.04883,0.08789 c -0.238365,0.736939 -0.284909,0.829664 -0.509765,1.578125 l -0.002,0.0098 c -0.189269,0.741751 -0.613977,0.956315 -1.080079,0.939453 -0.466101,-0.01686 -0.971768,-0.333567 -1.185546,-0.767578 l -0.470704,0.0625 c -0.307751,1.545912 -0.601438,3.047227 -0.84375,4.298828 l -0.002,0.01758 c -0.146221,1.236632 -0.709781,1.719221 -1.199218,1.785156 -0.489438,0.06594 -0.982279,-0.260654 -1.091797,-0.955078 l -0.888672,-9.861328 -0.494141,-0.02539 -0.833984,4.277344 -0.002,0.01563 c -0.04408,0.352414 -0.08913,0.55672 -0.115235,0.605469 -0.01305,0.02437 -0.0041,0.01123 -0.0098,0.01367 -0.0056,0.0024 -0.04188,0.01194 -0.115235,0.01172 -0.293434,-8.78e-4 -1.035278,-0.144419 -2.419922,0.002 -1.634588,0.172795 -2.524978,0.238925 -2.875,0.15625 -0.17501,-0.04134 -0.1902,-0.06567 -0.220703,-0.154297 -0.0305,-0.08862 -0.03553,-0.286936 -0.0078,-0.576172 0.0871,-0.849343 0.225077,-3.056622 0.458984,-5.230469 0.116997,-1.087326 0.259513,-2.164771 0.427735,-3.046875 0.162878,-0.854084 0.368823,-1.504028 0.544921,-1.783203 1.637686,-0.58848 3.6111,-1.174474 4.654297,-1.505859 0.132727,-0.04216 0.227821,-0.07424 0.294922,-0.09766 0.03355,-0.01171 0.05898,-0.02008 0.08203,-0.0293 0.02305,-0.0092 0.03276,-0.0088 0.08008,-0.04102 0.0059,-0.004 0.01302,-0.0086 0.02148,-0.01563 0.0085,-0.0071 0.03097,-0.03092 0.03125,-0.03125 2.76e-4,-3.25e-4 0.04286,-0.07199 0.04297,-0.07227 3.8e-5,-9.7e-5 0.007,-0.02565 0.01172,-0.04492 0.472094,-0.20575 0.982405,-0.47663 1.320313,-0.458984 0.51485,0.02689 0.881008,0.251194 1.119141,0.552734 0.238133,0.301541 0.339644,0.684507 0.294921,1.011719 -0.04472,0.327212 -0.214535,0.590603 -0.552734,0.726563 l -0.15625,0.246093 0.533203,9.730469 0.494141,0.03906 c 0,0 1.492189,-7.012262 3.017578,-12.742188 l -0.002,0.002 c 0.02202,-0.07951 0.03727,-0.131578 0.04687,-0.169922 0.0048,-0.01917 0.008,-0.03278 0.01172,-0.05469 0.0018,-0.01095 0.0052,-0.02079 0.0039,-0.05859 -3.16e-4,-0.0095 -0.0039,-0.03877 -0.0039,-0.03906 -5.4e-5,-2.91e-4 -0.0253,-0.07209 -0.02539,-0.07227 -4.7e-5,-8.7e-5 -0.03901,-0.05463 -0.03906,-0.05469 -5.6e-5,-5.9e-5 -0.07415,-0.0527 -0.07422,-0.05273 -6.6e-5,-3.1e-5 -0.09563,-0.02539 -0.0957,-0.02539 -7.6e-5,-3e-6 -0.07804,0.0097 -0.07813,0.0098 -1.71e-4,4.7e-5 -0.08378,0.04086 -0.08398,0.04102 -2.08e-4,1.54e-4 -0.03296,0.02904 -0.0332,0.0293 -4.89e-4,5.14e-4 -0.02032,0.02396 -0.02539,0.03125 -0.01013,0.01458 -0.01366,0.02223 -0.01758,0.0293 -0.0078,0.01413 -0.01357,0.0232 -0.01953,0.03516 -0.0026,0.0053 -0.0051,0.01205 -0.0078,0.01758 -0.318004,-0.411145 -0.765008,-0.74202 -1.431641,-0.925781 -0.748402,-0.206302 -1.699939,-0.288126 -2.841797,-0.251954 h -0.0078 c -1.146221,0.07452 -1.671912,-0.516251 -1.720704,-1.070312 -0.0244,-0.277031 0.0683,-0.551751 0.300782,-0.769531 0.232477,-0.21778 0.613372,-0.38292 1.183593,-0.384766 z m -17.179687,2.525391 h 0.002 c 0.966132,0.01999 1.561441,0.435368 1.96875,0.951172 0.407624,0.516202 0.608068,1.139495 0.705078,1.52539 l 0.183547,0.183594 c 1.346882,0.320668 1.907634,0.629633 5.972656,0.654297 h 0.0039 c 0.563782,-0.0039 0.810824,0.137173 0.925782,0.308594 0.114958,0.17142 0.128099,0.451929 0.03906,0.800781 -0.175426,0.68733 -0.726399,1.531756 -1.03125,1.943359 l -1.753906,1.070313 0.226562,0.443359 c 0.307768,-0.128467 0.941314,-0.419485 1.462891,-0.574219 0.260789,-0.07737 0.498177,-0.110812 0.595703,-0.09766 0.04876,0.0066 0.04564,0.01579 0.0332,0 -0.01244,-0.01579 -0.0013,-0.02556 -0.01172,0.0332 l -0.002,0.0098 c 0,0 -0.07451,0.556072 -0.302734,2.333984 l -0.002,0.0098 -0.804688,9.341797 c -0.05999,0.503901 -0.274686,0.816461 -0.5625,1.011718 -0.288473,0.195706 -0.663051,0.268549 -1.023437,0.228516 -0.360386,-0.04003 -0.69983,-0.19486 -0.914063,-0.417969 -0.214232,-0.223108 -0.318787,-0.499136 -0.236328,-0.875 l 0.002,-0.0059 1.84375,-9.53125 -0.316406,-0.287109 -1.287109,0.376953 -0.179688,0.234375 -0.08984,4.148437 v 0.0078 c 0.0088,0.783392 -0.16957,1.267737 -0.394532,1.537109 -0.224961,0.269372 -0.496492,0.349314 -0.773437,0.318359 -0.276946,-0.03095 -0.553292,-0.1903 -0.722656,-0.419921 -0.169365,-0.229622 -0.24194,-0.516079 -0.128907,-0.855469 l -0.0039,0.01367 c 0.47075,-1.191725 0.72085,-3.2232 0.761719,-4.34961 l -0.324219,-0.248047 c -0.379889,0.11933 -0.855575,0.331129 -1.525391,0.738282 l -0.0098,0.0059 c -0.228075,0.153445 -0.37604,0.260539 -0.472656,0.34375 -0.04831,0.04161 -0.08287,0.07162 -0.121094,0.126953 -0.01911,0.02767 -0.046,0.06071 -0.05273,0.144531 -9.13e-4,0.01137 0.0175,0.0222 0.01953,0.03516 -0.134779,0.08049 -0.29852,0.185585 -0.341797,0.199218 l -0.0059,0.002 c -0.218374,0.07446 -0.468496,0.05999 -0.6875,-0.01367 -0.219003,-0.07367 -0.400407,-0.210486 -0.480468,-0.328125 l -0.400391,-0.01758 c -1.339101,1.633666 -2.794911,2.705776 -3.685547,3.044921 -0.399098,0.151854 -0.590664,0.226062 -0.683593,0.267579 -0.02323,0.01038 -0.02136,-1.07e-4 -0.08399,0.04883 -0.0078,0.0061 -0.03096,0.02898 -0.03125,0.0293 -1.45e-4,1.58e-4 -0.02334,0.02916 -0.02344,0.0293 -9.5e-5,1.41e-4 -0.0273,0.05456 -0.02734,0.05469 -4.5e-5,1.23e-4 -0.01563,0.0956 -0.01563,0.0957 4e-6,1.06e-4 0.0351,0.119052 0.03516,0.119141 5.3e-5,8.8e-5 0.07021,0.0761 0.07031,0.07617 1.01e-4,7.1e-5 0.05844,0.02924 0.05859,0.0293 2.98e-4,1.11e-4 0.06397,0.01558 0.06445,0.01563 4.85e-4,4.6e-5 0.02342,2.12e-4 0.03125,0 0.01566,-4.23e-4 0.02358,-9.06e-4 0.03125,-0.002 0.06132,-0.0084 0.08439,-0.01724 0.136718,-0.03125 0.09539,-0.02555 0.227669,-0.06324 0.339844,-0.08984 0.357563,1.95525 0.484542,2.994927 0.833984,5.939453 l 0.002,0.0098 c 0.08209,0.506722 -0.04127,0.836482 -0.253907,1.0625 -0.212632,0.226019 -0.538799,0.352154 -0.886718,0.361328 -0.34792,0.0092 -0.709272,-0.101237 -0.97461,-0.3125 -0.265338,-0.211262 -0.44311,-0.512297 -0.451172,-0.949218 v -0.0039 C 10.135158,37.962783 10.413258,35.62375 9.6601361,31.390611 L 9.2109173,31.287095 c -0.045099,0.06271 -0.2228914,0.153004 -0.46875,0.158204 -0.2458586,0.0052 -0.5390998,-0.06372 -0.7695313,-0.208985 -0.2304314,-0.145261 -0.4002308,-0.353804 -0.4570312,-0.662109 -0.056541,-0.306898 0.00442,-0.73497 0.3125,-1.304688 1.5345308,-2.539966 3.3278352,-5.413959 6.7480472,-7.083984 0.0022,-0.0011 0.0036,-0.0028 0.0059,-0.0039 0.127723,-0.04634 0.461097,-0.17936 0.646485,-0.267578 0.0241,-0.01147 0.04537,-0.02157 0.06641,-0.0332 0.02104,-0.01164 0.02854,0.0028 0.09375,-0.07227 0.0082,-0.0094 0.0271,-0.03864 0.02734,-0.03906 2.36e-4,-4.08e-4 0.02762,-0.07534 0.0293,-0.08008 0.119236,-0.0363 0.261939,-0.10881 0.34375,-0.115234 0.07649,-0.0026 0.15205,-0.0033 0.226562,-0.002 z m 29.453125,1.492187 c -0.04245,-0.001 -0.07335,0.03502 -0.115234,0.03711 l -0.002,-0.0098 c -0.02113,0.01058 -0.03018,0.0158 -0.04883,0.02539 -0.712672,0.05884 -1.340686,0.518238 -1.558593,1.230468 -0.293563,0.959665 0.208009,1.993661 1.138671,2.306641 0.453834,0.158261 0.908635,0.0451 1.25586,-0.207031 0.347751,-0.25251 0.606478,-0.633821 0.755859,-1.052735 0.149382,-0.418913 0.190515,-0.880591 0.05469,-1.298828 -0.135553,-0.41739 -0.468255,-0.780431 -0.982422,-0.941406 -0.100631,-0.03252 -0.138358,-0.01901 -0.189453,-0.01367 -0.05214,0.0054 -0.106655,0.01496 -0.16211,0.02539 -0.04226,0.0079 -0.07698,0.01477 -0.11914,0.02344 z m -5.179688,0.02734 c -0.0046,0.0031 -0.0013,0.0047 -0.0059,0.0078 -0.0044,0.0034 -0.0093,0.0023 -0.01367,0.0059 z m 5.521485,0.535156 0.0059,0.002 c 0.0041,0.0013 0.0038,0.0046 0.0078,0.0059 0.01537,0.0023 0.03912,0.0098 -0.01367,-0.0078 z m 0.01563,0.01172 c -0.0021,2.1e-5 0.0041,-2.22e-4 0.002,0 0.366431,0.119271 0.55592,0.332464 0.646484,0.611328 0.09211,0.283636 0.06831,0.642606 -0.05078,0.976563 -0.119086,0.333956 -0.333719,0.637519 -0.580078,0.816406 -0.246359,0.178887 -0.504363,0.241893 -0.798828,0.138672 h -0.002 c -0.664944,-0.22362 -1.039867,-0.978108 -0.822266,-1.689453 0.129371,-0.42285 0.463041,-0.672286 0.841797,-0.800782 0.0044,0.0029 0.0095,0.0073 0.01367,0.0098 0.02217,0.0131 0.04089,0.0185 0.05664,0.02344 0.06299,0.01976 0.08685,0.01471 0.113282,0.01367 0.05287,-0.0021 0.09645,-0.0085 0.146484,-0.01758 0.100063,-0.01813 0.216718,-0.04607 0.314453,-0.06445 0.0481,-0.009 0.09144,-0.01461 0.119141,-0.01758 z m -29.785156,1.027344 c -0.450299,-0.04873 -0.939179,0.149133 -1.462891,0.455078 -0.523712,0.305945 -1.078363,0.734557 -1.603516,1.208984 -1.050305,0.948854 -1.978084,2.043423 -2.259765,2.820313 -1.09e-4,3e-4 -0.01361,0.0523 -0.01367,0.05273 -6.2e-5,4.38e-4 -0.0018,0.02146 -0.002,0.0293 -3.96e-4,0.01568 -7.42e-4,0.0251 0,0.0332 0.0015,0.0162 0.0041,0.02729 0.0059,0.03711 0.0036,0.01964 0.0084,0.03773 0.01367,0.06055 0.01057,0.04564 0.02467,0.106335 0.04492,0.191407 0.04051,0.170143 0.101175,0.431359 0.177734,0.80664 0.153119,0.750563 0.370818,1.958344 0.621094,3.802735 l 0.384766,0.175781 c 0.947064,-0.619861 2.280076,-1.919248 3.339843,-3.509766 1.059768,-1.590518 1.849196,-3.474253 1.597657,-5.259765 l -0.002,-0.0059 c -0.04331,-0.257472 -0.134407,-0.472975 -0.283203,-0.630859 -0.148795,-0.157884 -0.350622,-0.245071 -0.558593,-0.267578 z m -0.05469,0.496093 c 0.113351,0.01227 0.186378,0.04773 0.25,0.115235 0.06264,0.06647 0.120218,0.179473 0.152344,0.363281 0.224143,1.591043 -0.496152,3.379134 -1.517578,4.912109 -0.924209,1.38707 -2.044418,2.422421 -2.892578,3.048829 -0.2114,-1.473982 -0.411428,-2.675904 -0.546875,-3.339844 -0.07778,-0.381262 -0.14037,-0.648935 -0.181641,-0.822266 -0.01682,-0.07064 -0.02775,-0.11487 -0.03711,-0.154297 0.221422,-0.573189 1.097733,-1.68241 2.095703,-2.583984 0.506075,-0.457192 1.041116,-0.867813 1.521484,-1.148438 0.480368,-0.280624 0.910348,-0.417236 1.15625,-0.390625 z m 3.080078,0.9375 -0.324219,0.21875 c -0.116219,1.420447 -0.493644,2.334565 -0.957031,3.222657 l -0.0078,0.01563 c -0.170602,0.392063 -0.401998,0.816921 -0.669922,1.251953 l 0.292969,0.367187 c 0.896978,-0.300805 1.718022,-0.555391 2.470703,-0.783203 l 0.177734,-0.251953 c -0.05063,-1.034768 -0.0611,-1.592068 -0.246094,-3.220703 0.03413,0.0046 0.06834,0.01075 0.09961,0.01367 0.02036,0.0019 0.03814,0.0036 0.06055,0.0039 0.0224,3.14e-4 0.03877,0.0078 0.105468,-0.01367 0.01668,-0.0054 0.06561,-0.03071 0.06641,-0.03125 3.99e-4,-2.68e-4 0.04464,-0.03876 0.04492,-0.03906 2.79e-4,-3.01e-4 0.04477,-0.06607 0.04492,-0.06641 1.55e-4,-3.35e-4 0.02146,-0.08557 0.02148,-0.08594 2.7e-5,-3.7e-4 -0.0058,-0.08163 -0.0059,-0.08203 -1.02e-4,-4.06e-4 -0.0232,-0.0562 -0.02344,-0.05664 -2.36e-4,-4.42e-4 -0.01586,-0.02734 -0.02344,-0.03711 -0.06063,-0.0782 -0.08124,-0.07348 -0.105468,-0.08594 -0.09692,-0.04983 -0.218939,-0.08836 -0.488282,-0.173828 h -0.002 z m 12.3125,0.238282 c -0.07288,0.0093 -0.147075,0.02701 -0.236328,0.04687 -0.653575,0.111926 -1.845214,0.49352 -2.646484,0.779297 -0.200318,0.07144 -0.37419,0.137222 -0.509766,0.191406 -0.135575,0.05418 -0.208778,0.07597 -0.302734,0.140625 -0.01174,0.0081 -0.02395,0.01821 -0.04297,0.03711 -0.0095,0.0094 -0.02015,0.02163 -0.0332,0.04102 -0.0065,0.0097 -0.02128,0.03472 -0.02148,0.03516 -2.03e-4,4.4e-4 -0.01749,0.05429 -0.01758,0.05469 -8.4e-5,4.01e-4 -0.0039,0.07776 -0.0039,0.07813 3.6e-5,3.63e-4 0.02328,0.08366 0.02344,0.08398 1.56e-4,3.25e-4 0.0466,0.06612 0.04687,0.06641 2.78e-4,2.86e-4 0.04843,0.03882 0.04883,0.03906 4.01e-4,2.46e-4 0.02914,0.01681 0.04102,0.02148 0.01187,0.0047 0.02217,0.0074 0.03125,0.0098 0.01816,0.0047 0.03151,0.0067 0.04297,0.0078 0.09168,0.0087 0.111595,-0.0043 0.167969,-0.01563 0.03138,-0.0063 0.111099,-0.02921 0.152344,-0.03906 -0.0048,0.02272 -0.009,0.0263 -0.01367,0.05859 -0.01245,0.08528 -0.01656,0.163547 0.01172,0.25586 0.02828,0.09231 0.116302,0.190118 0.205079,0.224609 0.177553,0.06898 0.280483,0.01934 0.392578,0 0.421564,-0.07272 0.698132,0.01525 0.884765,0.166016 0.186633,0.150771 0.293502,0.381159 0.3125,0.646484 0.038,0.53065 -0.278951,1.145039 -0.990234,1.302735 l -0.0039,0.002 -0.917998,0.220639 h -0.0039 c -0.107868,0.02827 -0.154729,0.03796 -0.207032,0.05469 -0.02615,0.0084 -0.06888,0.0016 -0.142578,0.0918 -0.03263,0.03994 -0.04877,0.102349 -0.05273,0.148438 v -0.01563 c -0.0026,0.01682 -0.0033,0.01847 -0.0059,0.03516 -0.197756,1.267396 -0.357827,2.156715 -0.449219,2.669922 l -0.002,0.0078 c -0.01622,0.112964 -0.02976,0.204326 -0.03125,0.296875 -0.0015,0.09255 0.0075,0.204679 0.08594,0.306641 0.07844,0.101962 0.198182,0.142438 0.294922,0.15625 0.09674,0.01381 0.194289,0.01129 0.314453,0.0059 0.961833,-0.01737 1.528286,-0.03931 1.822266,-0.03516 0.31051,0.0044 0.470675,0.0042 0.566406,-0.002 0.02393,-0.0015 0.04179,-0.0022 0.07617,-0.0098 0.0086,-0.0019 0.01755,-0.0031 0.03125,-0.0078 0.0137,-0.0047 0.05785,-0.02882 0.05859,-0.0293 3.7e-4,-2.4e-4 0.04664,-0.03881 0.04687,-0.03906 2.32e-4,-2.47e-4 0.05264,-0.08178 0.05273,-0.08203 9.7e-5,-2.54e-4 0.01371,-0.122785 0.01367,-0.123047 -3.5e-5,-2.61e-4 -0.03499,-0.09739 -0.03516,-0.09766 -1.64e-4,-2.69e-4 -0.04073,-0.05246 -0.04102,-0.05273 -2.89e-4,-2.76e-4 -0.02224,-0.01919 -0.03125,-0.02539 -0.01802,-0.0124 -0.03092,-0.01879 -0.04102,-0.02344 -0.0202,-0.0093 -0.03221,-0.01238 -0.04297,-0.01563 -0.02152,-0.0065 -0.03706,-0.0099 -0.05469,-0.01367 -0.05213,-0.01102 -0.11371,-0.02212 -0.171875,-0.0332 l 0.136827,-2.355429 v -0.002 c 0.02649,-0.417563 0.140375,-0.681547 0.283203,-0.847657 0.143124,-0.166454 0.322174,-0.246334 0.521484,-0.273437 0.398621,-0.05421 0.870248,0.181011 0.982422,0.349609 l 0.457032,-0.175781 -0.556641,-3.808594 -0.002,-0.002 c -0.02075,-0.129023 -0.01657,-0.218926 -0.09766,-0.347656 -0.04054,-0.06437 -0.123338,-0.128748 -0.201172,-0.150391 -0.07783,-0.02164 -0.138453,-0.017 -0.195313,-0.0098 z m -12.224609,0.3125 0.130859,0.04102 c 0.229935,1.912566 0.205832,2.283341 0.25,3.28125 -0.526308,0.160152 -1.111565,0.349058 -1.707031,0.542969 0.13769,-0.250145 0.293654,-0.504818 0.398437,-0.744141 v -0.002 c 0.436104,-0.836007 0.771862,-1.82921 0.927735,-3.11914 z m 6.826172,0.07813 c -0.04275,0.18929 -0.109987,0.264695 -0.150391,0.476562 -0.0685,0.359187 -0.112673,0.819113 -0.171875,1.22461 -0.08608,-0.06869 -0.179211,-0.131557 -0.275391,-0.144532 -0.08459,-0.01141 -0.183151,0.03136 -0.271484,0.03906 l 0.06055,-0.05469 c 0.232511,-0.311339 0.539063,-0.95235 0.808594,-1.541015 z m -4.654297,0.05664 -0.3125,0.261719 0.166015,2.052734 0.423829,0.160157 1.451171,-1.400391 c 0.01691,3.76e-4 0.02809,4.51e-4 0.05078,0.002 0.08202,0.0054 0.18618,0.01899 0.267578,0.02539 0.0407,0.0032 0.05994,0.0092 0.130859,0 0.0089,-0.0012 0.01926,-0.0024 0.0332,-0.0059 0.01394,-0.0035 0.05579,-0.02105 0.05664,-0.02148 4.25e-4,-2.19e-4 0.04462,-0.02905 0.04492,-0.0293 3.02e-4,-2.47e-4 0.05256,-0.06027 0.05273,-0.06055 1.76e-4,-2.75e-4 0.03706,-0.0954 0.03711,-0.0957 4.7e-5,-3.05e-4 -0.0038,-0.101227 -0.0039,-0.101562 -8.3e-5,-3.35e-4 -0.02908,-0.06799 -0.0293,-0.06836 -2.18e-4,-3.65e-4 -0.02039,-0.02911 -0.0293,-0.03906 -0.01781,-0.01991 -0.03183,-0.03099 -0.04297,-0.03906 -0.02228,-0.01615 -0.03422,-0.02119 -0.04687,-0.02734 -0.101208,-0.04923 -0.198182,-0.0728 -0.447266,-0.142579 l -0.0059,-0.002 z m 10.041015,0.06445 c 0.0073,0.0295 0.0041,0.01446 0.01367,0.07422 l -0.002,-0.002 0.501953,3.435547 c -0.299247,-0.177989 -0.566968,-0.424136 -0.957031,-0.371094 -0.299234,0.04069 -0.604074,0.178244 -0.832031,0.44336 -0.227957,0.265115 -0.373147,0.645825 -0.404297,1.144531 v 0.002 l -0.142578,2.441406 c -0.332632,-0.0021 -0.839491,0.01668 -1.759766,0.0332 h -0.0078 c -0.0846,0.0038 -0.127594,3.83e-4 -0.167969,-0.002 0.0029,-0.04434 0.0093,-0.09988 0.02148,-0.185547 l 0.002,-0.0078 c 0.08765,-0.492152 0.242762,-1.374611 0.429688,-2.5625 0.02452,-0.0064 0.021,-0.0068 0.05469,-0.01563 l 0.914063,-0.21875 0.0039,-0.002 c 0.948627,-0.212837 1.429467,-1.063565 1.375,-1.824219 -0.02728,-0.380972 -0.189354,-0.752577 -0.498047,-1.001953 -0.308693,-0.249376 -0.753638,-0.358935 -1.283203,-0.267578 -0.0088,0.0015 -0.0014,8.47e-4 -0.0098,0.002 0.0019,-0.0058 0.0025,-0.01205 0.0059,-0.02344 0.01414,-0.04797 0.03355,-0.134325 0.06445,-0.314453 0.785257,-0.279044 1.98356,-0.654868 2.539063,-0.75 l 0.01172,-0.002 c 0.06095,-0.0135 0.08908,-0.01797 0.126953,-0.02539 z m -9.824218,0.509766 1.033203,0.269531 -0.939453,0.904297 z m 20.191406,0.570313 c -0.423226,1.352977 -0.825368,2.706891 -1.283203,4.039062 l 0.390625,0.277344 c 0,0 0.217193,-0.170364 0.523437,-0.351563 0.306244,-0.181198 0.702596,-0.362833 0.996094,-0.390625 l 0.224609,-0.27539 -0.365234,-3.251953 z m 0.121094,1.267578 0.214843,1.904297 c -0.333344,0.08106 -0.668064,0.198923 -0.93164,0.353515 0.247688,-0.75152 0.484368,-1.504631 0.716797,-2.257812 z m -13.775394,1.847657 c 1.13e-4,4.1e-4 0.0072,0.01334 0.0078,0.05469 4.4e-5,0.0031 -0.0037,0.0083 -0.0039,0.01172 z m -5.314453,0.183594 -0.802734,4.148437 0.08594,-3.939453 z"
       id="path11"
       transform="matrix(1.1379998,0,0,1.1379998,-4.415994,-4.4159933)" /><path
       id="path24"
       style="color:#000000;fill:#ffffff;stroke-width:0.671579;stroke-linecap:round;stroke-linejoin:round;-inkscape-stroke:none;paint-order:stroke fill markers"
       d="m 33.35223,14.056617 c -1.209025,0.004 -2.422706,0.389925 -3.294382,1.206439 -0.871676,0.816516 -1.305901,2.008027 -1.208548,3.119589 0.05798,0.661981 0.348022,1.247826 0.733413,1.779971 -3.790988,0.944929 -8.901358,1.00852 -10.557253,0.176424 -0.191335,-0.400999 -0.393538,-0.815958 -0.735865,-1.249345 -4.332423,-5.564901 -11.3325595,-0.04917 -16.2364474,7.966291 -0.019764,0.03244 -0.038947,0.06558 -0.05719,0.09885 -1.34630381,2.477114 0.00107,5.568009 2.0307405,6.614323 0.3258234,3.056892 0.2970286,5.610941 0.4337301,9.728073 0.024005,1.254633 0.6679651,2.474517 1.5584102,3.183428 0.8911228,0.709458 1.9337405,1.001628 2.9708362,0.974077 1.0370974,-0.02768 2.1621974,-0.400044 3.0118954,-1.303574 0.849697,-0.903529 1.201705,-2.296689 1.002563,-3.525967 -0.313205,-2.639822 -0.511827,-3.935979 -0.78254,-5.562332 0.726118,-0.484609 1.452343,-1.099406 2.161982,-1.817387 0.205625,0.03242 0.400386,0.07261 0.619364,0.07241 -0.278573,1.130905 -0.0556,2.350478 0.561112,3.186173 0.462125,0.626206 1.110018,1.021443 1.826156,1.293278 l -0.119324,0.617466 c -0.273744,1.247721 0.181168,2.652318 0.976242,3.480318 0.795065,0.828001 1.777838,1.219387 2.782398,1.331033 1.004559,0.111637 2.109573,-0.06849 3.092956,-0.735535 0.983382,-0.667051 1.698295,-1.869752 1.844757,-3.117185 0.0032,-0.02513 0.0059,-0.05005 0.0082,-0.07514 l 0.188456,-2.180864 c 0.622842,-0.05196 1.282849,-0.16764 2.200232,-0.264622 1.124167,-0.118833 1.377512,-0.01469 2.150049,0.01295 l 0.282488,3.138121 c 0.0048,0.05383 0.01138,0.107575 0.01977,0.160974 0.313202,1.985902 2.295093,3.698374 4.427133,3.410303 2.13204,-0.288069 3.532943,-2.291315 3.789521,-4.461258 l -0.02796,0.177778 c 0.107381,-0.554558 0.250333,-1.27666 0.372671,-1.903193 1.394111,-0.141433 2.809845,-1.184507 3.419305,-2.573515 0.328845,0.674475 0.778711,1.327743 1.506474,1.912116 0.804067,0.645645 2.034054,1.045417 3.167352,0.937698 0.25889,-0.02457 0.487548,-0.126603 0.732009,-0.186705 0.739741,1.065587 1.358198,2.034193 2.432537,3.335135 0.834368,1.010362 1.696314,1.980705 2.562374,2.782537 0.433029,0.400918 0.861496,0.761481 1.363297,1.082193 0.501806,0.320716 1.056908,0.689525 2.11672,0.714598 0.03095,9.38e-4 0.06204,0.0016 0.09301,0.0014 1.250399,-0.01524 1.946252,-0.512309 2.529389,-0.939066 0.583138,-0.426757 1.048647,-0.895891 1.464013,-1.37016 0.415371,-0.474272 0.767249,-0.946708 1.056953,-1.409977 0.592458,-0.947455 0.878245,-2.206318 0.640772,-3.305272 -0.143467,-0.553149 -0.262532,-0.728973 -0.313018,-0.865276 -0.354295,-0.956449 -0.395352,-1.983043 -0.302488,-3.02417 0.184755,-1.112035 0.104856,-2.267751 -0.506719,-3.206768 -0.717144,-1.101104 -1.913303,-1.69487 -3.015758,-1.817384 -1.102453,-0.122505 -2.21517,0.133554 -3.162087,0.870421 -0.368208,0.286538 -0.633726,0.722619 -0.884651,1.158392 0.123761,-0.643835 0.232058,-1.226234 0.415128,-2.102608 0.551397,-2.639815 1.281719,-6.115583 1.692461,-9.581515 0.157335,-1.302763 -0.414895,-2.677347 -1.274513,-3.468678 -0.859616,-0.791335 -1.868682,-1.139292 -2.871531,-1.229783 -1.002842,-0.09048 -2.067938,0.06936 -3.064886,0.710821 -0.485864,0.312625 -0.917413,0.786043 -1.245392,1.333437 -1.008461,-0.261826 -1.981466,7.4e-4 -2.891533,0.54882 -0.379343,-0.275382 -0.786649,-0.5083 -1.254523,-0.577266 -0.334615,-1.234077 -1.149956,-2.363548 -2.335687,-3.206788 -1.830814,-1.301997 -4.465544,-2.054554 -8.086113,-2.054554 -0.0026,-8e-6 -0.0053,-8e-6 -0.0082,0 z m 0.0084,2.490794 c 6.498321,0 8.393745,2.78115 8.032776,4.27935 -0.101817,0.422621 -0.391971,1.727803 -0.391971,1.727803 0,0 0.08845,-0.54743 0.588833,-0.883465 0.346592,-0.282272 2.93348,-0.287138 3.007334,1.988656 0.721053,7.165581 0.564045,6.227623 1.637365,10.360982 0.473749,-1.188103 0.356805,-1.736263 -0.404605,-6.187347 -0.355322,-2.315248 3.586231,-1.961459 2.876092,0.0333 -0.458705,0.8304 -0.401368,0.835067 -0.02513,0.37995 -0.195685,2.169066 -0.55712,4.268496 0.563221,6.22785 0.917173,-4.712487 0.958177,-5.518525 0.625676,-13.123273 0.09584,-2.340792 4.266058,-1.961779 3.986037,0.356954 -0.785913,6.638722 -2.858269,13.652426 -2.343405,14.126869 1.640536,1.577454 4.295469,4.552737 5.112468,4.717307 0.357656,0.07182 0.625904,0.497392 0.721478,0.59344 0.01383,0.0178 -0.88897,-1.421284 -1.138015,-5.395866 -0.172724,-2.277118 4.001905,-2.326132 3.127347,0.860469 -0.429879,1.261044 0.01355,0.375499 0.01295,0.412559 -0.04938,4.16743 0.923544,3.632454 0.620064,4.835376 0.01949,0.503579 -1.980192,3.229723 -3.229813,3.244868 -1.722776,-0.04076 -6.716644,-6.870312 -7.668873,-8.504131 -2.86823,1.971013 -4.011552,-0.03456 -4.569608,-2.58175 -1.9e-4,0.0043 -0.250558,-1.050274 -0.250558,-1.050274 -1.666772,-0.05063 -2.896752,0.893651 -3.100678,1.128872 -0.272387,0.842122 -0.321161,0.944572 -0.575849,1.792331 -0.481007,1.88509 -2.522195,1.447407 -3.111553,0.250898 -0.350112,1.758695 -0.683045,3.465083 -0.9587,4.888917 -0.351644,2.973948 -2.881166,2.787095 -3.169806,0.956918 l -1.013438,-11.24411 -0.949925,4.868327 c -0.20218,1.616566 -0.187353,0.639942 -3.279993,0.96687 -3.721883,0.393446 -3.973424,0.389296 -3.843915,-0.962064 0.194132,-1.8917 0.635006,-10.105715 1.699476,-11.650144 1.899941,-0.689281 4.216396,-1.3739 5.422326,-1.756979 1.197685,-0.380459 -0.384083,0.04573 -0.214069,-0.06794 3.888636,-2.600094 5.450534,1.539468 3.534057,2.309913 l 0.606732,11.07318 c 0,0 1.695867,-7.980784 3.434747,-14.512656 0.1993,-0.719782 -0.14482,0.459025 -0.271257,-0.02952 -0.581629,-0.957308 -2.251129,-1.411831 -4.812435,-1.33069 -2.828259,0.183879 -3.101591,-3.092625 -0.285296,-3.10174 z m -19.544138,2.873838 c 2.366656,0.04744 3.084601,2.118674 3.314734,3.034122 1.55578,0.370402 2.118348,0.710642 6.73053,0.738625 2.77255,-0.01921 0.851619,3.008646 0.138976,3.962893 l -2.058459,1.25484 c 0.671566,-0.280324 2.922976,-1.348566 2.757128,-0.414277 0,0 -0.08562,0.630227 -0.345299,2.653143 l 10e-4,3.45e-4 -0.917642,10.637969 c -0.303363,2.583791 -4.12692,1.901615 -3.676525,-0.151373 l 2.100221,-10.847341 -1.464716,0.430408 -0.102124,4.719711 c 0.0422,3.743651 -3.479836,2.458978 -2.852231,0.574562 0.506414,-1.282012 0.800354,-3.607746 0.845704,-4.85769 -0.405648,0.127421 -0.925001,0.356744 -1.673511,0.811731 -1.019398,0.685831 -0.551201,0.547371 -0.113333,0.308562 0.209353,-0.101692 -0.70856,0.583612 -1.061165,0.694691 -0.638272,0.217628 -1.379083,-0.0917 -1.656314,-0.499052 -1.548427,1.889039 -3.212892,3.132693 -4.312385,3.551369 -1.8135575,0.69004 0.00671,0.03553 0.030191,0.161652 0.4454769,2.400776 0.57565,3.553218 0.988174,7.029282 0.417831,2.57921 -3.4420247,2.540236 -3.4845757,0.234094 C 6.8337285,38.353371 7.1496357,35.71521 6.2978623,30.927575 5.7581132,31.678059 2.741512,31.089878 4.2450157,28.323517 5.994454,25.427736 8.073267,22.083524 12.052853,20.143393 c 0.190151,-0.06713 1.792351,-0.713662 -0.0414,-0.0913 -0.463537,0.170605 0.825403,-0.573687 1.518406,-0.628103 0.09797,-0.0036 0.193398,-0.0044 0.286696,-0.0027 z m 33.505277,2.268726 c -0.841369,0.421296 0.32776,0.03267 0.484613,0.08512 2.0373,0.633655 0.65089,4.042865 -1.053796,3.445308 -0.907901,-0.305325 -1.407813,-1.323068 -1.116961,-2.273875 0.233727,-0.763939 0.920169,-1.275467 1.686144,-1.256554 z m -6.320665,0.864589 c -1.694261,4.699791 -3.023475,11.027874 -3.023475,11.027874 2.399684,-4.674689 2.97573,-10.004163 3.023475,-11.027874 z m -27.192653,0.955887 c -1.584556,-0.17148 -5.2099339,3.390262 -5.7637631,4.91775 -0.015818,0.04374 0.4076054,1.361938 0.9786992,5.570571 2.0520929,-1.34311 6.0345369,-5.859805 5.4932079,-9.702332 -0.08546,-0.508082 -0.342479,-0.746416 -0.708144,-0.785989 z m 3.389479,1.620031 c -0.135614,1.657494 -0.58691,2.748518 -1.122224,3.774463 -0.201532,0.463142 -0.471503,0.958136 -0.781485,1.46146 1.02425,-0.343488 1.962085,-0.63607 2.820297,-0.895822 -0.06352,-1.298284 -0.02062,-1.649661 -0.303541,-3.995159 -0.005,-0.04348 1.201946,0.227343 -0.0088,-0.156853 z m 14.129908,0.282475 c -0.06253,0.008 -0.144371,0.02625 -0.253721,0.05047 -1.382276,0.23672 -5.48423,1.739328 -3.119623,1.070524 -0.0742,0.438961 -0.07506,0.299849 -0.103877,0.497336 -0.04364,0.298966 0.106142,0.271851 0.362846,0.227569 2.164773,-0.373452 2.238974,2.546558 0.346352,2.966164 l -1.046074,0.249174 c -0.250106,0.06555 -0.254258,0.06194 -0.247056,0.08819 -0.229716,1.476361 -0.41374,2.492124 -0.519,3.083205 -0.07292,0.507772 -0.0642,0.568717 0.460047,0.545043 1.100801,-0.01977 1.736787,-0.04344 2.091095,-0.03843 1.406249,0.01977 0.183909,-0.05086 0.185291,-0.148973 l 0.168432,-2.895798 c 0.130473,-2.088863 2.114223,-1.686758 2.557111,-1.0211 l -0.635155,-4.333925 c -0.04716,-0.293261 -0.05913,-0.363313 -0.246688,-0.339451 z m -11.54683,0.502141 0.190884,2.336 1.718075,-1.655725 c 0.07,-0.0836 1.259338,0.166568 0.137904,-0.14759 z m 23.568796,1.111365 c -0.48079,1.536996 -0.940715,3.080708 -1.464366,4.604387 0,0 1.04758,-0.826347 1.879144,-0.905089 z m -27.072323,8.298193 -0.05684,0.01807 c 0.0178,-0.0057 0.0082,-0.0076 0.02514,-0.01295 0.01093,-0.0036 0.02062,-0.0015 0.03157,-0.005 z" /></g></svg>
