<?xml version="1.0" encoding="UTF-8" standalone="no"?>
<svg
   width="256"
   height="256"
   enable-background="new 0 0 1000 1000"
   version="1.1"
   viewBox="0 0 256 256.00001"
   xml:space="preserve"
   id="svg2"
   sodipodi:docname="EA_App.svg"
   inkscape:version="1.3.2 (091e20ef0f, 2023-11-25, custom)"
   xmlns:inkscape="http://www.inkscape.org/namespaces/inkscape"
   xmlns:sodipodi="http://sodipodi.sourceforge.net/DTD/sodipodi-0.dtd"
   xmlns="http://www.w3.org/2000/svg"
   xmlns:svg="http://www.w3.org/2000/svg"><defs
   id="defs2" /><sodipodi:namedview
   id="namedview2"
   pagecolor="#505050"
   bordercolor="#ffffff"
   borderopacity="1"
   inkscape:showpageshadow="0"
   inkscape:pageopacity="0"
   inkscape:pagecheckerboard="1"
   inkscape:deskcolor="#505050"
   inkscape:zoom="0.40249961"
   inkscape:cx="535.40425"
   inkscape:cy="684.47272"
   inkscape:window-width="1920"
   inkscape:window-height="1011"
   inkscape:window-x="0"
   inkscape:window-y="0"
   inkscape:window-maximized="1"
   inkscape:current-layer="svg2" />

<g
   id="g5"
   transform="matrix(0.23999986,0,0,0.23999986,8.0000697,7.9998999)"><path
     id="rect2"
     style="opacity:0.85;fill:#ffffff;stroke:none;stroke-width:5.66929;stroke-linecap:round;paint-order:stroke fill markers"
     d="m 302.05469,306.60547 -42.875,68.90039 h 282.25 l 43.19922,-68.90039 z M 642.375,307.26172 469.63086,582.32422 H 278.01758 l 44.20703,-68.95899 h 114.8457 l 43.86914,-68.92578 h -265.5 l -43.86133,68.92578 h 62.89649 l -87.26563,137.68165 h 364.1875 l 134.51563,-212.13672 49.04687,74.45507 h -44.2246 l -41.88282,68.95899 h 130.96289 l 45.47461,68.72266 h 83.54102 z" /><path
     d="M 499.99944,1000.001 C 224.29725,1000.001 2.3759999e-6,775.7019 2.3759999e-6,500.00188 2.3759999e-6,224.29841 224.29725,4.171578e-4 499.99944,4.171578e-4 775.69819,4.171578e-4 1000,224.29956 1000,500.00188 1000,775.70075 775.69934,1000.001 499.99944,1000.001 Z M 584.62803,306.60542 H 302.05389 l -42.8743,68.90055 h 282.24954 z m 57.74741,0.65726 -172.7438,275.06233 H 278.01817 l 44.20725,-68.95925 h 114.84445 l 43.86998,-68.92587 H 215.43853 l -43.86077,68.92587 h 62.89619 l -87.26572,137.68023 h 364.18921 l 134.51527,-212.13582 49.04639,74.45559 h -44.22451 l -41.88207,68.95925 H 739.8144 l 45.47459,68.72098 h 83.54082 z"
     clip-rule="evenodd"
     fill="#ff4747"
     fill-rule="evenodd"
     id="path1"
     style="stroke-width:1.15107" /></g>
</svg>
