<?xml version="1.0" encoding="UTF-8" standalone="no"?>
<!-- Uploaded to: SVG Repo, www.svgrepo.com, Generator: SVG Repo Mixer Tools -->

<svg
   fill="#000000"
   width="256"
   height="256"
   viewBox="0 0 7.68 7.68"
   role="img"
   version="1.1"
   id="svg1"
   sodipodi:docname="lutris_ubisoft-connect.svg"
   inkscape:version="1.3.2 (091e20ef0f, 2023-11-25, custom)"
   xmlns:inkscape="http://www.inkscape.org/namespaces/inkscape"
   xmlns:sodipodi="http://sodipodi.sourceforge.net/DTD/sodipodi-0.dtd"
   xmlns="http://www.w3.org/2000/svg"
   xmlns:svg="http://www.w3.org/2000/svg"
   xmlns:rdf="http://www.w3.org/1999/02/22-rdf-syntax-ns#"
   xmlns:cc="http://creativecommons.org/ns#"
   xmlns:dc="http://purl.org/dc/elements/1.1/">
  <defs
     id="defs1" />
  <sodipodi:namedview
     id="namedview1"
     pagecolor="#505050"
     bordercolor="#ffffff"
     borderopacity="1"
     inkscape:showpageshadow="0"
     inkscape:pageopacity="0"
     inkscape:pagecheckerboard="1"
     inkscape:deskcolor="#505050"
     inkscape:zoom="1.4230524"
     inkscape:cx="275.81556"
     inkscape:cy="121.21831"
     inkscape:window-width="1920"
     inkscape:window-height="1011"
     inkscape:window-x="0"
     inkscape:window-y="0"
     inkscape:window-maximized="1"
     inkscape:current-layer="svg1" />
  <title
     id="title1">Ubisoft icon</title>
  <path
     d="M 7.3083323,4.0165222 C 7.2303349,0.32874741 2.3261014,-1.0470059 0.43676549,2.4100768 0.52136259,2.4718748 0.63505877,2.5531719 0.71965589,2.61167 A 3.5242804,3.5242804 0 0 0 0.42686582,3.5320387 3.565679,3.565679 0 0 0 0.3716677,4.1533177 C 0.3716677,6.0654528 1.9262149,7.62 3.8416499,7.62 5.757085,7.62 7.3083323,6.0687526 7.3083323,4.1533177 V 4.0168222 Z M 1.2272386,4.6342013 c -0.045598,0.3740873 -0.016199,0.4910834 -0.016199,0.5366818 l -0.084597,0.029399 C 1.0940432,5.1384842 1.0157459,4.9206916 0.9800471,4.6279015 0.88885015,3.5125394 1.6499243,2.5075734 2.8108849,2.3188799 3.8743488,2.1628852 4.8922143,2.8228627 5.1295063,3.7465314 l -0.084597,0.029399 C 5.01881,3.7498313 4.9765114,3.6751339 4.8139169,3.5125394 3.5293605,2.227983 1.513129,2.816563 1.2269386,4.6345013 Z M 4.5280267,5.2587802 A 0.94346803,0.94346803 0 0 1 3.750753,5.6652663 0.94526794,0.94526794 0 0 1 2.8042851,4.7187984 0.94766784,0.94766784 0 0 1 3.6823554,3.7756304 C 3.988045,3.7627313 4.2742352,3.9286252 4.4074307,4.1950162 a 0.77397374,0.77397374 0 0 1 -0.1364953,0.88467 c 0.087897,0.061798 0.1724941,0.1202959 0.2567913,0.178794 z m 1.973933,0.035699 C 6.0012766,6.4293404 4.9702117,7.0245202 3.8710489,7.0083207 1.7606205,6.9042243 1.1459414,4.468607 2.5570935,3.5905367 l 0.061798,0.061798 C 2.5960922,3.6847335 2.511495,3.7498313 2.3815994,4.0069226 2.2286047,4.319212 2.1800063,4.6312014 2.1995056,4.8264948 2.3102019,6.527437 4.6939211,6.8754252 5.5131932,5.1906824 6.5571578,2.8849607 3.7864518,0.54024023 1.3277353,2.3320794 L 1.2725371,2.2768813 C 1.9196152,1.2623157 3.1846723,0.81023107 4.3912313,1.1126208 6.2352688,1.577605 7.2270351,3.4996398 6.5016597,5.2947789 Z"
     id="path2"
     style="fill:#000000;stroke-width:0.29999;opacity:0.2" />
  <path
     id="path3"
     style="fill:#000000;stroke:none;stroke-width:0.162636;stroke-linecap:round;paint-order:stroke fill markers;opacity:0.35"
     d="M 3.7108594 0.84082031 C 2.7320307 0.81952339 1.7982895 1.2725608 1.2725391 2.0968945 L 1.3277344 2.1520898 C 3.7864484 0.36025247 6.5571667 2.7049837 5.5132031 5.0107031 C 4.6939318 6.6954442 2.3101884 6.3474249 2.1994922 4.6464844 C 2.1799929 4.4511912 2.228607 4.1392227 2.3816016 3.8269336 C 2.511497 3.5698426 2.596107 3.504723 2.6189062 3.4723242 L 2.5570898 3.4105078 C 1.1459392 4.2885772 1.7606284 6.7242435 3.8710547 6.8283398 C 4.9702164 6.8445393 6.0012901 6.2493327 6.5019727 5.1144727 L 6.5016797 5.1147656 C 7.2270544 3.3196283 6.2352857 1.3976204 4.39125 0.93263672 C 4.1650204 0.8759387 3.9367429 0.84573499 3.7108594 0.84082031 z M 3.2061328 2.1175781 C 3.0760604 2.112657 2.9437922 2.1194069 2.8108594 2.1389062 C 1.6498999 2.3275996 0.8888422 3.3325492 0.98003906 4.4479102 C 1.0157378 4.7407 1.0940655 4.9584561 1.1264648 5.0202539 L 1.2110156 4.9908984 C 1.2110156 4.9453001 1.1816481 4.8282666 1.2272461 4.4541797 L 1.2269531 4.4544727 C 1.5131432 2.6365362 3.5293902 2.0479644 4.8139453 3.3325195 C 4.9765396 3.4951139 5.0188226 3.569858 5.0449219 3.595957 L 5.1295312 3.566543 C 4.921901 2.7583337 4.1166397 2.1520259 3.2061328 2.1175781 z M 3.6823828 3.5956055 A 0.94766784 0.94766784 0 0 0 2.8042969 4.5387891 A 0.94526794 0.94526794 0 0 0 3.7507617 5.4852539 A 0.94346803 0.94346803 0 0 0 4.5280078 5.0787891 L 4.5277148 5.0784961 C 4.4434177 5.0199981 4.3588539 4.9614659 4.270957 4.899668 A 0.77397374 0.77397374 0 0 0 4.4074219 4.0150195 C 4.2742265 3.7486288 3.9880721 3.5827064 3.6823828 3.5956055 z " />
  <path
     d="M 7.3083323,3.8365222 C 7.2303349,0.14874741 2.3261014,-1.2270059 0.43676549,2.2300768 0.52136259,2.2918748 0.63505877,2.3731719 0.71965589,2.43167 A 3.5242804,3.5242804 0 0 0 0.42686582,3.3520387 3.565679,3.565679 0 0 0 0.3716677,3.9733177 C 0.3716677,5.8854528 1.9262149,7.44 3.8416499,7.44 5.757085,7.44 7.3083323,5.8887526 7.3083323,3.9733177 V 3.8368222 Z M 1.2272386,4.4542013 c -0.045598,0.3740873 -0.016199,0.4910834 -0.016199,0.5366818 l -0.084597,0.029399 C 1.0940432,4.9584842 1.0157459,4.7406916 0.9800471,4.4479015 0.88885015,3.3325394 1.6499243,2.3275734 2.8108849,2.1388799 3.8743488,1.9828852 4.8922143,2.6428627 5.1295063,3.5665314 l -0.084597,0.029399 C 5.01881,3.5698313 4.9765114,3.4951339 4.8139169,3.3325394 3.5293605,2.047983 1.513129,2.636563 1.2269386,4.4545013 Z M 4.5280267,5.0787802 A 0.94346803,0.94346803 0 0 1 3.750753,5.4852663 0.94526794,0.94526794 0 0 1 2.8042851,4.5387984 0.94766784,0.94766784 0 0 1 3.6823554,3.5956304 C 3.988045,3.5827313 4.2742352,3.7486252 4.4074307,4.0150162 a 0.77397374,0.77397374 0 0 1 -0.1364953,0.88467 c 0.087897,0.061798 0.1724941,0.1202959 0.2567913,0.178794 z m 1.973933,0.035699 C 6.0012766,6.2493404 4.9702117,6.8445202 3.8710489,6.8283207 1.7606205,6.7242243 1.1459414,4.288607 2.5570935,3.4105367 l 0.061798,0.061798 C 2.5960922,3.5047335 2.511495,3.5698313 2.3815994,3.8269226 2.2286047,4.139212 2.1800063,4.4512014 2.1995056,4.6464948 2.3102019,6.347437 4.6939211,6.6954252 5.5131932,5.0106824 6.5571578,2.7049607 3.7864518,0.36024023 1.3277353,2.1520794 L 1.2725371,2.0968813 C 1.9196152,1.0823157 3.1846723,0.63023107 4.3912313,0.93262081 6.2352688,1.397605 7.2270351,3.3196398 6.5016597,5.1147789 Z"
     id="path1"
     style="stroke-width:0.29999;fill:#ffffff" />
  <metadata
     id="metadata1">
    <rdf:RDF>
      <cc:Work
         rdf:about="">
        <dc:title>Ubisoft icon</dc:title>
      </cc:Work>
    </rdf:RDF>
  </metadata>
</svg>
