<?xml version="1.0" encoding="UTF-8" standalone="no"?>
<!-- Generator: Adobe Illustrator 19.2.1, SVG Export Plug-In . SVG Version: 6.00 Build 0)  -->

<svg
   version="1.1"
   x="0px"
   y="0px"
   viewBox="0 0 48 48"
   style="enable-background:new 0 0 48 48;"
   xml:space="preserve"
   id="svg12"
   sodipodi:docname="rgb_wheel.svg"
   inkscape:version="1.3.2 (091e20ef0f, 2023-11-25, custom)"
   xmlns:inkscape="http://www.inkscape.org/namespaces/inkscape"
   xmlns:sodipodi="http://sodipodi.sourceforge.net/DTD/sodipodi-0.dtd"
   xmlns="http://www.w3.org/2000/svg"
   xmlns:svg="http://www.w3.org/2000/svg"><defs
   id="defs12"><filter
     inkscape:collect="always"
     style="color-interpolation-filters:sRGB"
     id="filter2"
     x="-1.2"
     y="-1.2"
     width="3.4"
     height="3.4"><feGaussianBlur
       inkscape:collect="always"
       stdDeviation="3"
       id="feGaussianBlur2" /></filter><filter
     inkscape:collect="always"
     style="color-interpolation-filters:sRGB"
     id="filter18"
     x="-0.047999998"
     y="-0.047999998"
     width="1.096"
     height="1.096"><feGaussianBlur
       inkscape:collect="always"
       stdDeviation="0.76933273"
       id="feGaussianBlur18" /></filter></defs><sodipodi:namedview
   id="namedview12"
   pagecolor="#505050"
   bordercolor="#ffffff"
   borderopacity="1"
   inkscape:showpageshadow="0"
   inkscape:pageopacity="0"
   inkscape:pagecheckerboard="1"
   inkscape:deskcolor="#505050"
   inkscape:zoom="16.208333"
   inkscape:cx="24"
   inkscape:cy="23.44473"
   inkscape:window-width="1920"
   inkscape:window-height="1011"
   inkscape:window-x="0"
   inkscape:window-y="0"
   inkscape:window-maximized="1"
   inkscape:current-layer="svg12" />











<circle
   style="opacity:0.2;fill:#000000;stroke:#ffffff;stroke-width:0;stroke-linecap:round;stroke-linejoin:bevel;stroke-dasharray:none;stroke-opacity:1;filter:url(#filter18)"
   id="circle23"
   cx="24"
   cy="24.663734"
   r="19.233318" /><path
   id="polygon1"
   style="fill:#e91e63;stroke-width:0.25;stroke:none;stroke-opacity:1;stroke-dasharray:none"
   d="M 24,5.9999996 A 17.999989,17.999989 0 0 0 15.024275,8.4538095 L 24,24 Z" /><path
   id="polygon2"
   style="fill:#ff5722;stroke-width:0.25;stroke:none;stroke-opacity:1;stroke-dasharray:none"
   d="M 32.997977,8.4173968 24,24 39.582604,15.002023 A 17.999989,17.999989 0 0 0 32.997977,8.4173968 Z" /><path
   id="polygon3"
   style="fill:#f44336;stroke-width:0.25;stroke:none;stroke-opacity:1;stroke-dasharray:none"
   d="M 24,5.9999996 V 24 L 32.997977,8.4173968 A 17.999989,17.999989 0 0 0 24,5.9999996 Z" /><path
   id="polygon4"
   style="fill:#8bc34a;stroke-width:0.25;stroke:none;stroke-opacity:1;stroke-dasharray:none"
   d="m 24,24 v 18 a 17.999989,17.999989 0 0 0 8.997977,-2.417396 z" /><path
   id="polygon5"
   style="fill:#03a9f4;stroke-width:0.25;stroke:none;stroke-opacity:1;stroke-dasharray:none"
   d="M 24,24 8.4538095,32.975726 a 17.999989,17.999989 0 0 0 6.5704655,6.570465 z" /><path
   id="polygon6"
   style="fill:#4caf50;stroke-width:0.25;stroke:none;stroke-opacity:1;stroke-dasharray:none"
   d="M 24,24 15.024275,39.546191 A 17.999989,17.999989 0 0 0 24,42 Z" /><path
   id="polygon7"
   style="fill:#ff9800;stroke-width:0.25;stroke:none;stroke-opacity:1;stroke-dasharray:none"
   d="M 39.582604,15.002023 24,24 h 18 a 17.999989,17.999989 0 0 0 -2.417396,-8.997977 z" /><path
   id="polygon8"
   style="fill:#ffeb3b;stroke-width:0.25;stroke:none;stroke-opacity:1;stroke-dasharray:none"
   d="m 24,24 8.997977,15.582604 a 17.999989,17.999989 0 0 0 6.584627,-6.584627 z" /><path
   id="polygon9"
   style="fill:#ffc107;stroke-width:0.25;stroke:none;stroke-opacity:1;stroke-dasharray:none"
   d="m 24,24 15.582604,8.997977 A 17.999989,17.999989 0 0 0 42,24 Z" /><path
   id="polygon10"
   style="fill:#3f51b5;stroke-width:0.25;stroke:none;stroke-opacity:1;stroke-dasharray:none"
   d="m 5.9999996,24 a 17.999989,17.999989 0 0 0 2.4538099,8.975726 L 24,24 Z" /><path
   id="polygon11"
   style="fill:#9c27b0;stroke-width:0.25;stroke:none;stroke-opacity:1;stroke-dasharray:none"
   d="M 15.024275,8.4538095 A 17.999989,17.999989 0 0 0 8.4538095,15.024275 L 24,24 Z" /><path
   id="polygon12"
   style="fill:#673ab7;stroke-width:0.25;stroke:none;stroke-opacity:1;stroke-dasharray:none"
   d="m 8.4538095,15.024275 a 17.999989,17.999989 0 0 0 -0.00202,0.004 17.999989,17.999989 0 0 0 -1.0539447,2.158462 17.999989,17.999989 0 0 0 -0.2933243,0.706002 17.999989,17.999989 0 0 0 -0.3742414,1.165206 17.999989,17.999989 0 0 0 -0.4490898,1.879298 17.999989,17.999989 0 0 0 -0.093055,0.685772 A 17.999989,17.999989 0 0 0 5.9999996,24 H 24 Z" />
<circle
   style="opacity:1;mix-blend-mode:normal;fill:#000000;stroke:none;stroke-width:0.21;stroke-linecap:round;stroke-linejoin:bevel;stroke-dasharray:none;filter:url(#filter2)"
   id="circle2"
   cx="24"
   cy="24"
   r="3"
   transform="matrix(2.3530795,0,0,2.3530795,-32.473906,-32.473906)" /><path
   id="path18"
   style="color:#000000;fill:#000000;-inkscape-stroke:none;opacity:0.5"
   d="m 24.628906,5.5477721 -0.625,0.00391 H 24 23.378906 v 0.013672 c -2.839566,0.110158 -5.616017,0.8700245 -8.117187,2.21875 -0.0044,0.00235 -0.0093,0.0035 -0.01367,0.00586 l 0.0098,-0.013672 -0.484375,0.28125 c -0.01995,0.011543 -0.04064,0.021583 -0.06055,0.033203 l -0.53711,0.3144534 0.0039,0.0078 c -2.407129,1.5018 -4.4394265,3.5325495 -5.9414325,5.9394495 l -0.042969,-0.02344 0.041016,0.02734 c -0.015002,0.02405 -0.030026,0.04814 -0.044922,0.07226 l 0.00391,-0.09961 -0.273437,0.548828 c -0.0019,0.0033 -0.00396,0.0065 -0.00586,0.0098 l -0.00195,0.0059 -0.310547,0.53711 0.011719,0.0078 c -0.291551,0.549609 -0.5559,1.113315 -0.791016,1.689453 -0.103875,0.236331 -0.202912,0.474398 -0.296875,0.714844 l -0.00391,0.0078 -0.00391,0.0078 c -0.142707,0.397382 -0.271344,0.798918 -0.386719,1.205078 -0.188802,0.637488 -0.343292,1.285437 -0.462891,1.939453 v 0.0078 l -0.00195,0.0078 c -0.03573,0.230059 -0.06667,0.460172 -0.09375,0.691406 -3.76e-4,0.0026 3.76e-4,0.0052 0,0.0078 -3.84e-4,0.0033 -0.00155,0.0065 -0.00195,0.0098 -0.087977,0.605384 -0.147421,1.213526 -0.175781,1.824218 h -0.021484 l 0.021484,0.002 v 0.002 c -5.71e-4,0.01235 -0.00141,0.02476 -0.00195,0.03711 l -0.019531,-0.04102 0.00391,0.628907 -0.00781,0.621093 h 0.021485 c 0.110179,2.840143 0.869509,5.617574 2.21875,8.119141 l -0.00781,0.0039 0.3125,0.541016 0.00195,0.002 c 0.0098,0.01693 0.019452,0.03389 0.029297,0.05078 l 0.285156,0.486328 0.00586,-0.0039 c 1.502006,2.407103 3.5343035,4.4394 5.9414065,5.941406 l -0.0039,0.0078 0.53711,0.3125 0.002,0.002 0.542969,0.3125 0.0039,-0.0078 c 2.50117,1.348725 5.277621,2.108592 8.117187,2.21875 v 0.01367 h 0.625 l 0.625,0.0039 v -0.01367 c 2.843983,-0.09739 5.628754,-0.846715 8.138672,-2.1875 l 0.0059,0.0098 0.541016,-0.3125 0.541015,-0.314453 -0.0039,-0.0078 c 2.413348,-1.504249 4.450829,-3.54173 5.955078,-5.955078 l 0.0078,0.0039 0.257812,-0.447266 c 0.01845,-0.03151 0.03837,-0.06212 0.05664,-0.09375 l 0.3125,-0.541015 -0.01172,-0.0059 c 1.340988,-2.509908 2.091858,-5.294679 2.189453,-8.138662 h 0.0098 v -0.625 -0.625 h -0.0098 c -0.09759,-2.843982 -0.848464,-5.628753 -2.189453,-8.138671 l 0.01172,-0.0059 -0.3125,-0.541016 c -0.01827,-0.03163 -0.03819,-0.06224 -0.05664,-0.09375 l -0.257812,-0.447265 -0.0078,0.0039 C 38.301918,11.915127 36.263947,9.8781215 33.849609,8.3739445 l 0.0059,-0.0078 -0.541015,-0.3125005 -0.541016,-0.3125 -0.0059,0.00977 C 30.25766,6.4099186 27.472889,5.6590504 24.628906,5.561454 c -0.0091,-3.123e-4 -0.01824,2.99e-4 -0.02734,0 z m -1.25,1.2714844 V 21.842692 L 15.921875,8.9286315 c 2.3085,-1.2371574 4.843604,-1.9918949 7.457031,-2.109375 z m 1.25,0.064453 c 2.618185,0.097497 5.163979,0.7820366 7.478515,2.009766 L 24.628906,21.844645 Z M 14.806641,9.4989445 22.296875,22.469645 9.3828125,15.014567 C 10.77332,12.80109 12.599469,10.893997 14.806641,9.4989445 Z m 18.382812,0.01953 c 2.218372,1.3916215 4.081033,3.2542825 5.472656,5.4726535 L 25.710937,22.469645 Z M 8.6992185,16.063395 21.671875,23.551676 H 6.6796875 c 0.02739,-0.555147 0.050371,-1.109945 0.13086,-1.660156 l 0.00195,-0.0098 v -0.0098 c 0.02501,-0.215355 0.05483,-0.430265 0.08789,-0.644531 0.111917,-0.612006 0.256721,-1.21797 0.433594,-1.814453 v -0.0039 l 0.00195,-0.0039 c 0.105944,-0.372961 0.224817,-0.742386 0.355469,-1.107422 v -0.002 c 0.08935,-0.228572 0.184251,-0.455106 0.283203,-0.679688 l 0.00195,-0.0078 0.00391,-0.0078 c 0.213765,-0.523821 0.454987,-1.036708 0.71875,-1.53711 z m 30.5878905,0.0098 c 1.227729,2.314536 1.912269,4.860331 2.009766,7.478515 H 26.33789 Z M 6.6464845,24.801676 H 21.669921 L 8.7558595,32.258708 c -1.237157,-2.308502 -1.991895,-4.843604 -2.109375,-7.457032 z m 19.6894525,0 h 14.964844 c -0.09743,2.61818 -0.785861,5.163825 -2.013672,7.478516 z m -4.039062,1.082032 v 0.002 L 14.839844,38.79977 C 12.628921,37.410845 10.771842,35.55185 9.3828125,33.340786 Z m 3.414062,0 12.953125,7.480468 c -1.391492,2.218092 -3.25633,4.079138 -5.474609,5.470703 z m -2.332031,0.625 v 14.960937 c -2.613375,-0.110298 -5.151314,-0.809256 -7.457031,-2.044922 z m 1.25,0 7.478515,12.953125 c -2.314253,1.227521 -4.860489,1.910316 -7.478515,2.007812 z" /><path
   id="path6"
   style="color:#000000;fill:#ffffff;-inkscape-stroke:none"
   d="m 24.628897,5.3710008 -0.625,0.00391 h -0.0039 -0.621094 v 0.013672 c -2.839566,0.110158 -5.616017,0.8700245 -8.117187,2.21875 -0.0044,0.00235 -0.0093,0.0035 -0.01367,0.00586 l 0.0098,-0.013672 -0.484375,0.28125 c -0.01995,0.011543 -0.04064,0.021583 -0.06055,0.033203 l -0.53711,0.3144534 0.0039,0.0078 c -2.407129,1.5018 -4.4394265,3.5325508 -5.9414325,5.9394508 l -0.04297,-0.02344 0.04102,0.02734 c -0.015,0.02405 -0.03003,0.04814 -0.04492,0.07226 l 0.0039,-0.09961 -0.273437,0.548828 c -0.0019,0.0033 -0.004,0.0065 -0.0059,0.0098 l -0.0019,0.0059 -0.310547,0.53711 0.01172,0.0078 c -0.291551,0.549609 -0.5559,1.113315 -0.791016,1.689453 -0.103875,0.236331 -0.202912,0.474398 -0.296875,0.714844 l -0.0039,0.0078 -0.0039,0.0078 c -0.142707,0.397382 -0.271344,0.798918 -0.386719,1.205078 -0.188802,0.637488 -0.343292,1.285437 -0.462891,1.939453 v 0.0078 l -0.002,0.0078 c -0.03573,0.230059 -0.06667,0.460172 -0.09375,0.691406 -3.76e-4,0.0026 3.76e-4,0.0052 0,0.0078 -3.84e-4,0.0033 -0.0016,0.0065 -0.002,0.0098 -0.08798,0.605384 -0.147421,1.213526 -0.175781,1.824218 h -0.02148 l 0.02148,0.002 v 0.002 c -5.71e-4,0.01235 -0.0014,0.02476 -0.002,0.03711 l -0.01953,-0.04102 0.0039,0.628907 -0.0078,0.621093 h 0.02149 c 0.110179,2.840143 0.869509,5.617574 2.21875,8.119141 l -0.0078,0.0039 0.3125,0.541016 0.002,0.002 c 0.0098,0.01693 0.01945,0.03389 0.0293,0.05078 l 0.285156,0.486328 0.0059,-0.0039 c 1.502006,2.407103 3.5343035,4.4394 5.9414065,5.941406 l -0.0039,0.0078 0.53711,0.3125 0.002,0.002 0.542969,0.3125 0.0039,-0.0078 c 2.50117,1.348725 5.277622,2.108592 8.117187,2.21875 v 0.01367 h 0.625 l 0.625,0.0039 v -0.01367 c 2.843983,-0.09739 5.628754,-0.846715 8.138672,-2.1875 l 0.0059,0.0098 0.541016,-0.3125 0.541015,-0.314453 -0.0039,-0.0078 c 2.413348,-1.504249 4.450829,-3.54173 5.955078,-5.955078 l 0.0078,0.0039 0.257812,-0.447266 c 0.01845,-0.03151 0.03837,-0.06212 0.05664,-0.09375 l 0.3125,-0.541015 -0.01172,-0.0059 c 1.340988,-2.509918 2.091858,-5.294689 2.189453,-8.138672 h 0.0098 v -0.625 -0.625 h -0.0098 c -0.09759,-2.843982 -0.848464,-5.628753 -2.189453,-8.138671 l 0.01172,-0.0059 -0.3125,-0.541016 c -0.01827,-0.03163 -0.03819,-0.06224 -0.05664,-0.09375 l -0.257812,-0.447265 -0.0078,0.0039 C 38.301909,11.738357 36.263938,9.7013502 33.8496,8.1971727 l 0.0059,-0.00781 -0.541015,-0.3125 -0.541016,-0.3125 -0.0059,0.00977 c -2.509918,-1.3409954 -5.294689,-2.0918636 -8.138672,-2.18946 -0.0091,-3.123e-4 -0.01824,2.99e-4 -0.02734,0 z m -1.25,1.2714844 V 21.665922 L 15.921866,8.7518602 c 2.3085,-1.2371574 4.843604,-1.9918949 7.457031,-2.109375 z m 1.25,0.064453 c 2.618185,0.097497 5.163979,0.7820366 7.478515,2.009766 L 24.628897,21.667875 Z M 14.806632,9.3221732 22.296866,22.292875 9.3828035,14.837797 C 10.773311,12.62432 12.59946,10.717227 14.806632,9.3221732 Z m 18.382812,0.01953 c 2.218372,1.3916228 4.081033,3.2542838 5.472656,5.4726548 L 25.710928,22.292874 Z M 8.6992095,15.886624 21.671866,23.374905 H 6.6796785 c 0.02739,-0.555147 0.05037,-1.109945 0.13086,-1.660156 l 0.002,-0.0098 v -0.0098 c 0.02501,-0.215355 0.05483,-0.430265 0.08789,-0.644531 0.111917,-0.612006 0.256721,-1.21797 0.433594,-1.814453 v -0.0039 l 0.0019,-0.0039 c 0.105944,-0.372961 0.224817,-0.742386 0.355469,-1.107422 v -0.002 c 0.08935,-0.228572 0.184251,-0.455106 0.283203,-0.679688 l 0.002,-0.0078 0.0039,-0.0078 c 0.213765,-0.523821 0.454987,-1.036708 0.71875,-1.53711 z m 30.5878905,0.0098 c 1.227729,2.314536 1.912269,4.860331 2.009766,7.478515 H 26.337881 Z M 6.6464755,24.624905 H 21.669912 L 8.7558505,32.081937 c -1.237157,-2.308502 -1.991895,-4.843604 -2.109375,-7.457032 z m 19.6894525,0 h 14.964844 c -0.09743,2.61818 -0.785861,5.163825 -2.013672,7.478516 z m -4.039062,1.082032 v 0.002 l -7.457031,12.914062 c -2.210923,-1.388925 -4.068002,-3.24792 -5.4570315,-5.458984 z m 3.414062,0 12.953125,7.480468 c -1.391492,2.218092 -3.25633,4.079138 -5.474609,5.470703 z m -2.332031,0.625 v 14.960938 c -2.613375,-0.110298 -5.151314,-0.809256 -7.457031,-2.044922 z m 1.25,0 7.478515,12.953125 c -2.314253,1.227521 -4.860489,1.910316 -7.478515,2.007812 z" /></svg>
