<?xml version="1.0" encoding="UTF-8" standalone="no"?>
<svg
   width="64"
   height="64"
   version="1"
   id="svg4"
   sodipodi:docname="update-prevail.svg"
   inkscape:version="1.3.2 (091e20ef0f, 2023-11-25, custom)"
   xml:space="preserve"
   inkscape:export-filename="../../../../../../../../repo-sources/update-checker/update-prevail.png"
   inkscape:export-xdpi="96"
   inkscape:export-ydpi="96"
   xmlns:inkscape="http://www.inkscape.org/namespaces/inkscape"
   xmlns:sodipodi="http://sodipodi.sourceforge.net/DTD/sodipodi-0.dtd"
   xmlns="http://www.w3.org/2000/svg"
   xmlns:svg="http://www.w3.org/2000/svg"><defs
     id="defs4"><filter
       inkscape:collect="always"
       style="color-interpolation-filters:sRGB"
       id="filter2"
       x="-0.058079999"
       y="-0.058079999"
       width="1.11616"
       height="1.11616"><feGaussianBlur
         inkscape:collect="always"
         stdDeviation="0.42183841"
         id="feGaussianBlur2" /></filter><filter
       inkscape:collect="always"
       style="color-interpolation-filters:sRGB"
       id="filter9"
       x="-0.017280001"
       y="-0.017279999"
       width="1.03456"
       height="1.03456"><feGaussianBlur
         inkscape:collect="always"
         stdDeviation="0.43731565"
         id="feGaussianBlur9" /></filter></defs><sodipodi:namedview
     id="namedview4"
     pagecolor="#4d4d4d"
     bordercolor="#000000"
     borderopacity="0.25"
     inkscape:showpageshadow="2"
     inkscape:pageopacity="0.0"
     inkscape:pagecheckerboard="false"
     inkscape:deskcolor="#4d4d4d"
     inkscape:zoom="3.9933812"
     inkscape:cx="-37.436947"
     inkscape:cy="-13.397168"
     inkscape:window-width="1920"
     inkscape:window-height="1011"
     inkscape:window-x="0"
     inkscape:window-y="0"
     inkscape:window-maximized="1"
     inkscape:current-layer="svg4"
     showborder="true"
     showguides="false"><sodipodi:guide
       position="16,82.91511"
       orientation="-1,0"
       id="guide4"
       inkscape:locked="false"
       inkscape:label=""
       inkscape:color="rgb(0,134,229)" /><sodipodi:guide
       position="48,90.162951"
       orientation="-1,0"
       id="guide5"
       inkscape:locked="false"
       inkscape:label=""
       inkscape:color="rgb(0,134,229)" /><sodipodi:guide
       position="32,76.197592"
       orientation="-1,0"
       id="guide6"
       inkscape:locked="false"
       inkscape:label=""
       inkscape:color="rgb(0,134,229)" /><sodipodi:guide
       position="48.696411,32.340698"
       orientation="0,-1"
       id="guide1"
       inkscape:locked="false" /><sodipodi:guide
       position="24,48.125"
       orientation="-1,0"
       id="guide2"
       inkscape:locked="false"
       inkscape:label=""
       inkscape:color="rgb(0,134,229)" /><sodipodi:guide
       position="40,71.25"
       orientation="-1,0"
       id="guide3"
       inkscape:locked="false"
       inkscape:label=""
       inkscape:color="rgb(0,134,229)" /><sodipodi:guide
       position="29.338379,40.126953"
       orientation="0,-1"
       id="guide7"
       inkscape:locked="false" /><sodipodi:guide
       position="30.75,15"
       orientation="0,-1"
       id="guide8"
       inkscape:locked="false" /></sodipodi:namedview><circle
     style="opacity:0.35;fill:#000000;fill-opacity:1;stroke-width:0.581044;filter:url(#filter2)"
     cx="32"
     cy="54.147972"
     r="8.7156696"
     id="circle2"
     transform="matrix(3.0529508,0,0,3.0529508,-65.694426,-131.96464)" /><path
     style="color:#000000;opacity:0.65;mix-blend-mode:normal;fill:#000000;-inkscape-stroke:none;filter:url(#filter9)"
     d="m 32,2.1724508 c -16.756606,0 -30.3691406,13.6125412 -30.3691406,30.3691472 0,16.756606 13.6125346,30.369141 30.3691406,30.369141 16.756606,0 30.369141,-13.612535 30.369141,-30.369141 C 62.369141,15.784992 48.756606,2.1724508 32,2.1724508 Z"
     id="path9"
     sodipodi:nodetypes="sssss"
     transform="matrix(0.9439778,0,0,0.9439778,1.7927105,1.8474223)" /><path
     style="color:#000000;fill:#431e90;stroke-width:0.943978;-inkscape-stroke:none;fill-opacity:1"
     d="M 59.367673,32.05471 A 27.367675,27.367675 0 0 1 31.999998,59.422385 27.367675,27.367675 0 0 1 4.632323,32.05471 27.367675,27.367675 0 0 1 31.999998,4.6870348 27.367675,27.367675 0 0 1 59.367673,32.05471 Z"
     id="path6" /><path
     style="color:#000000;fill:#6a2aff;stroke-width:0.943978;-inkscape-stroke:none;fill-opacity:1"
     d="m 32,3.3869174 c -15.817864,0 -28.6677944,12.8499306 -28.6677944,28.6677946 0,15.817864 12.8499304,28.667795 28.6677944,28.667795 15.817864,0 28.667795,-12.849931 28.667795,-28.667795 C 60.667795,16.236848 47.817864,3.3869174 32,3.3869174 Z m 0,2.60147 c 14.411605,1e-7 26.066324,11.6547196 26.066324,26.0663246 C 58.066324,46.466317 46.411605,58.121036 32,58.121036 17.588395,58.121036 5.9336757,46.466317 5.9336756,32.054712 5.9336757,17.643107 17.588395,5.9883874 32,5.9883874 Z"
     id="path7" /><path
     style="fill:#6a2aff;stroke-width:1.52334;fill-opacity:1"
     d="M 24.356684,27.972247 16.981093,28.07681 32.317696,4.023162 46.934455,27.793873 39.474215,27.968632 31.918892,59.975424 Z"
     id="path4"
     sodipodi:nodetypes="ccccccc" /><path
     style="fill:#6a2aff;stroke-width:1.52334;fill-opacity:1"
     d="M 24.356684,27.972247 16.981093,28.07681 32.317696,4.023162 46.934455,27.793873 39.474215,27.968632 31.918892,59.975424 Z"
     id="path1"
     sodipodi:nodetypes="ccccccc" /><rect
     style="fill:none;fill-opacity:1;stroke:none;stroke-width:1.88976"
     id="rect1"
     width="37.676601"
     height="37.676601"
     x="10.020487"
     y="-9.0765429" /></svg>
